<?xml version="1.0" encoding="UTF-8"?>
<!-- Generator: visioncortex VTracer 0.6.4 -->
<svg version="1.1" xmlns="http://www.w3.org/2000/svg" width="547" height="439">
<path d="M0 0 C180.51 0 361.02 0 547 0 C547 144.87 547 289.74 547 439 C366.49 439 185.98 439 0 439 C0 294.13 0 149.26 0 0 Z " fill="#F1F1F2" transform="translate(0,0)"/>
<path d="M0 0 C0.99 0.5 0.99 0.5 2 1 C1.34 1.99 0.68 2.98 0 4 C-0.19 6.66 -0.27 9.21 -0.26 11.86 C-0.26 12.66 -0.27 13.47 -0.27 14.29 C-0.28 16.94 -0.27 19.59 -0.27 22.24 C-0.27 24.08 -0.27 25.92 -0.27 27.76 C-0.27 31.63 -0.27 35.49 -0.26 39.36 C-0.25 44.3 -0.26 49.25 -0.27 54.2 C-0.28 58 -0.27 61.81 -0.27 65.62 C-0.27 67.44 -0.27 69.26 -0.27 71.09 C-0.28 73.64 -0.27 76.19 -0.26 78.75 C-0.26 79.5 -0.27 80.25 -0.27 81.02 C-0.24 85.37 0.18 89.02 2 93 C5.02 94.45 5.02 94.45 8 95 C8.99 93.51 8.99 93.51 10 92 C13.16 88.42 15.15 86.42 20 86 C20.33 84.35 20.66 82.7 21 81 C21.84 80.81 21.84 80.81 22.69 80.62 C25.28 79.92 27.59 79.2 30 78 C30.46 77.07 30.46 77.07 30.93 76.13 C32.14 73.72 33.44 72.47 35.5 70.75 C36.11 70.23 36.72 69.71 37.34 69.17 C39 68 39 68 41 68 C41 67.01 41 66.02 41 65 C42.18 64.65 43.35 64.3 44.56 63.94 C47.88 62.7 49.88 61.37 52.27 58.77 C55.92 54.99 59.86 51.83 64.06 48.69 C64.8 48.13 65.55 47.57 66.31 46.99 C68.54 45.32 70.77 43.66 73 42 C73.94 41.3 73.94 41.3 74.89 40.58 C87.28 31.28 101.29 22.13 116 17 C116.99 17.33 117.98 17.66 119 18 C117 19.86 115 21.71 113 23.56 C112.45 24.08 111.89 24.59 111.32 25.12 C108.35 27.87 105.35 30.56 102.28 33.2 C97.34 37.51 92.7 42.12 88.06 46.75 C86.57 48.24 85.08 49.72 83.58 51.2 C77.27 57.47 71.55 64.04 66 71 C65.07 72.1 64.12 73.2 63.17 74.29 C48.54 91.06 36.24 109.8 24.75 128.84 C17.64 140.62 17.64 140.62 14.56 142.44 C9.76 143.49 5.47 141.52 0.97 139.93 C-23.27 131.39 -49.51 129.46 -74.79 134.56 C-77.87 135.17 -80.87 135.06 -84 135 C-84.9 131.35 -84.99 128.58 -84.35 124.89 C-84.18 123.89 -84.02 122.89 -83.84 121.87 C-83.65 120.79 -83.46 119.72 -83.27 118.61 C-83.08 117.48 -82.89 116.35 -82.69 115.19 C-82.07 111.56 -81.44 107.94 -80.81 104.31 C-80.21 100.78 -79.6 97.24 -79 93.71 C-78.6 91.35 -78.19 89 -77.78 86.65 C-76.75 80.63 -75.79 74.62 -74.95 68.57 C-74.78 67.38 -74.61 66.19 -74.44 64.96 C-74.12 62.7 -73.82 60.43 -73.53 58.16 C-73.39 57.14 -73.24 56.13 -73.1 55.08 C-72.98 54.19 -72.86 53.31 -72.74 52.39 C-71.8 49.37 -70.4 48.01 -68 46 C-65.35 44.97 -62.81 44.56 -60 44 C-59.34 45.65 -58.68 47.3 -58 49 C-57.9 48.44 -57.79 47.89 -57.69 47.31 C-56.82 44.4 -55.92 42.38 -54 40 C-50.88 39.62 -50.88 39.62 -48 40 C-47 41 -47 41 -46.89 43.32 C-46.89 44.32 -46.9 45.32 -46.9 46.35 C-46.91 47.43 -46.91 48.51 -46.91 49.62 C-46.92 51.32 -46.92 51.32 -46.94 53.06 C-46.94 54.2 -46.95 55.34 -46.95 56.52 C-46.96 59.35 -46.98 62.17 -47 65 C-46.34 64.67 -45.68 64.34 -45 64 C-45 65.32 -45 66.64 -45 68 C-44.01 67.67 -43.02 67.34 -42 67 C-41.34 67 -40.68 67 -40 67 C-40.33 54.46 -40.66 41.92 -41 29 C-40.34 29 -39.68 29 -39 29 C-38.59 28.35 -38.18 27.7 -37.76 27.03 C-36 25 -36 25 -33.21 24.51 C-32.11 24.52 -31.01 24.53 -29.87 24.54 C-28.67 24.54 -27.47 24.55 -26.24 24.55 C-24.98 24.58 -23.73 24.6 -22.44 24.62 C-20.55 24.63 -20.55 24.63 -18.63 24.63 C-9.28 24.72 -9.28 24.72 -7 27 C-6.34 27 -5.68 27 -5 27 C-4.5 27.99 -4.5 27.99 -4 29 C-2.27 27.27 -2.81 24.9 -2.75 22.54 C-2.7 20.87 -2.7 20.87 -2.65 19.17 C-2.59 16.82 -2.54 14.46 -2.48 12.1 C-2.45 10.99 -2.41 9.87 -2.38 8.73 C-2.34 7.19 -2.34 7.19 -2.3 5.62 C-2 3 -2 3 0 0 Z " fill="#E7EEF7" transform="translate(227,150)"/>
<path d="M0 0 C1.21 2.33 2.17 4.5 3 7 C3.97 7.25 4.94 7.5 5.94 7.75 C6.95 8.16 7.96 8.57 9 9 C11.59 15.53 11.96 22.71 12.76 29.63 C12.92 30.94 13.07 32.25 13.23 33.6 C13.56 36.36 13.88 39.13 14.2 41.89 C14.6 45.42 15.02 48.95 15.45 52.48 C15.85 55.87 16.24 59.25 16.64 62.63 C16.79 63.9 16.94 65.16 17.1 66.47 C17.23 67.64 17.36 68.82 17.5 70.04 C17.62 71.07 17.74 72.1 17.87 73.17 C18 75.98 17.68 78.28 17 81 C15.18 81.04 15.18 81.04 13.33 81.08 C-16.87 81.98 -46.53 90.85 -71 109 C-71.66 108.67 -72.32 108.34 -73 108 C-71.02 106.02 -69.04 104.04 -67 102 C-67.99 101.67 -68.98 101.34 -70 101 C-70.33 101.99 -70.66 102.98 -71 104 C-71.77 103.44 -71.77 103.44 -72.56 102.88 C-76.12 101.6 -78.52 102.79 -82 104 C-78.95 97.61 -75.44 91.65 -71.62 85.69 C-71.01 84.73 -70.4 83.77 -69.77 82.78 C-60.28 68.09 -49.71 54.24 -38.51 40.82 C-37.12 39.15 -35.76 37.46 -34.4 35.77 C-23.92 22.97 -11.77 11.6 0 0 Z " fill="#F0F1F3" transform="translate(329,182)"/>
<path d="M0 0 C-2 1.86 -4 3.71 -6 5.56 C-6.55 6.08 -7.11 6.59 -7.68 7.12 C-10.65 9.87 -13.65 12.56 -16.72 15.2 C-21.66 19.51 -26.3 24.12 -30.94 28.75 C-32.43 30.24 -33.92 31.72 -35.42 33.2 C-41.73 39.47 -47.45 46.04 -53 53 C-53.93 54.1 -54.88 55.2 -55.83 56.29 C-70.46 73.06 -82.76 91.8 -94.25 110.84 C-96.74 114.96 -99.29 119.01 -102 123 C-104.84 121.71 -106.88 120.36 -109.06 118.14 C-109.61 117.58 -110.16 117.02 -110.73 116.45 C-111.57 115.58 -111.57 115.58 -112.44 114.69 C-113 114.12 -113.56 113.55 -114.13 112.96 C-115.25 111.83 -116.36 110.7 -117.46 109.57 C-119.63 107.36 -121.81 105.18 -124 103 C-125.24 101.75 -126.47 100.51 -127.71 99.26 C-129.08 97.88 -130.44 96.5 -131.81 95.12 C-132.49 94.44 -133.16 93.76 -133.85 93.06 C-139.57 87.32 -145.52 81.96 -151.84 76.9 C-152.75 76.16 -152.75 76.16 -153.68 75.41 C-154.91 74.41 -156.16 73.43 -157.41 72.45 C-161.87 68.78 -161.87 68.78 -162.53 64.75 C-162 62 -162 62 -160 60 C-155.46 59.55 -152.56 60.35 -148.54 62.42 C-147.52 62.95 -146.5 63.47 -145.44 64.01 C-144.37 64.59 -143.29 65.16 -142.19 65.75 C-141.08 66.33 -139.98 66.91 -138.84 67.51 C-129.33 72.61 -120.57 78.46 -112 85 C-108.32 83.49 -106.28 81.35 -103.69 78.38 C-102.97 77.56 -102.25 76.74 -101.51 75.9 C-100.16 74.34 -98.82 72.78 -97.48 71.22 C-92.74 65.71 -87.71 60.56 -82.56 55.44 C-81.75 54.63 -80.95 53.81 -80.12 52.98 C-75.24 48.11 -70.24 43.47 -65 39 C-64.08 38.2 -63.17 37.41 -62.23 36.59 C-46.42 23.15 -29.45 11.4 -10.75 2.38 C-9.66 1.84 -9.66 1.84 -8.54 1.3 C-3.36 -1.12 -3.36 -1.12 0 0 Z " fill="#213179" transform="translate(346,168)"/>
<path d="M0 0 C1.17 -0 2.33 -0 3.53 -0 C4.76 -0 5.99 0 7.25 0.01 C9.09 0 9.09 0 10.97 -0 C12.72 -0 12.72 -0 14.5 0 C15.58 0 16.66 0 17.77 0 C20.25 0.13 20.25 0.13 21.25 1.13 C22.14 9.59 22.26 18.17 22.47 26.67 C22.57 30.61 22.72 34.54 22.96 38.48 C24.67 66.34 24.67 66.34 16.25 76.25 C11.16 81.85 5.36 86.67 -0.75 91.13 C-2.75 90.13 -4.75 89.13 -6.75 88.13 C-6.77 76.81 -6.79 65.48 -6.8 54.15 C-6.81 48.9 -6.81 43.64 -6.83 38.38 C-6.84 33.31 -6.84 28.24 -6.84 23.17 C-6.85 21.23 -6.85 19.29 -6.86 17.35 C-6.86 14.64 -6.86 11.94 -6.86 9.23 C-6.87 8.42 -6.87 7.61 -6.87 6.78 C-6.86 0.14 -6.53 0.01 0 0 Z " fill="#1FA2C5" transform="translate(234.75,151.8671875)"/>
<path d="M0 0 C4.31 -0.03 8.62 -0.05 12.94 -0.06 C14.17 -0.07 15.4 -0.08 16.67 -0.09 C17.84 -0.09 19.01 -0.09 20.21 -0.1 C21.84 -0.11 21.84 -0.11 23.5 -0.11 C26 0 26 0 27 1 C27.14 2.89 27.21 4.78 27.26 6.68 C27.29 7.89 27.31 9.11 27.34 10.36 C27.43 15.21 27.5 20.07 27.55 24.92 C27.58 28.6 27.64 32.28 27.73 35.96 C27.83 39.52 27.88 43.08 27.89 46.64 C27.91 48.65 27.98 50.66 28.05 52.67 C28.03 61.65 28.03 61.65 25.04 65.58 C22.79 67.6 20.52 69.32 18 71 C17 71.83 15.99 72.65 14.96 73.5 C13.68 74.52 13.68 74.52 12.38 75.56 C8.41 78.77 4.75 82.09 1.24 85.79 C0 87 0 87 -1 87 C-1.02 75.95 -1.04 64.9 -1.05 53.86 C-1.06 48.73 -1.06 43.6 -1.08 38.47 C-1.09 33.52 -1.09 28.57 -1.09 23.63 C-1.1 21.73 -1.1 19.84 -1.11 17.95 C-1.11 15.31 -1.11 12.67 -1.11 10.03 C-1.12 9.24 -1.12 8.45 -1.12 7.64 C-1.11 2.23 -1.11 2.23 0 0 Z " fill="#12A5B9" transform="translate(265,126)"/>
<path d="M0 0 C0.8 0 1.6 0.01 2.42 0.01 C3.61 0.01 3.61 0.01 4.84 0 C10.79 0.01 10.79 0.01 11.92 1.14 C12 2.77 12.02 4.41 12.02 6.05 C12.01 7.04 12.01 8.03 12.01 9.04 C11.99 10.61 11.99 10.61 11.98 12.2 C11.98 13.24 11.97 14.29 11.97 15.37 C11.95 17.96 11.94 20.55 11.92 23.14 C12.55 23.13 13.18 23.13 13.83 23.12 C16.67 23.1 19.51 23.09 22.36 23.07 C23.85 23.06 23.85 23.06 25.37 23.05 C26.78 23.04 26.78 23.04 28.23 23.04 C29.54 23.03 29.54 23.03 30.88 23.02 C32.92 23.14 32.92 23.14 33.92 24.14 C34.04 26.79 34.1 29.42 34.11 32.07 C34.12 32.82 34.13 33.56 34.14 34.32 C34.15 36.26 34.04 38.2 33.92 40.14 C31.92 42.14 31.92 42.14 29.85 42.36 C28.61 42.35 28.61 42.35 27.35 42.33 C26.45 42.33 25.56 42.32 24.63 42.31 C23.7 42.3 22.76 42.28 21.79 42.26 C20.85 42.25 19.9 42.24 18.93 42.23 C16.59 42.21 14.26 42.18 11.92 42.14 C11.93 42.76 11.95 43.39 11.97 44.03 C12.03 46.86 12.07 49.69 12.11 52.51 C12.13 53.5 12.16 54.48 12.18 55.5 C12.19 56.44 12.2 57.38 12.21 58.35 C12.23 59.22 12.24 60.09 12.26 60.98 C12.15 61.69 12.03 62.4 11.92 63.14 C8.35 65.52 6.65 65.41 2.42 65.39 C1.27 65.39 0.13 65.4 -1.05 65.4 C-4.08 65.14 -4.08 65.14 -7.08 63.14 C-7.42 60.98 -7.42 60.98 -7.38 58.35 C-7.37 57.41 -7.36 56.47 -7.35 55.5 C-7.32 54.51 -7.3 53.53 -7.27 52.51 C-7.26 51.52 -7.24 50.53 -7.23 49.5 C-7.19 47.05 -7.14 44.59 -7.08 42.14 C-7.68 42.14 -8.27 42.15 -8.89 42.15 C-11.58 42.17 -14.27 42.19 -16.96 42.2 C-17.89 42.21 -18.83 42.22 -19.8 42.22 C-21.14 42.23 -21.14 42.23 -22.51 42.23 C-23.75 42.24 -23.75 42.24 -25.02 42.25 C-27.08 42.14 -27.08 42.14 -29.08 41.14 C-29.11 38.32 -29.13 35.51 -29.14 32.7 C-29.15 31.9 -29.16 31.09 -29.17 30.27 C-29.18 28.22 -29.13 26.18 -29.08 24.14 C-28.08 23.14 -28.08 23.14 -26.04 23.02 C-25.17 23.03 -24.29 23.03 -23.39 23.04 C-22.45 23.04 -21.5 23.05 -20.53 23.05 C-19.04 23.06 -19.04 23.06 -17.52 23.07 C-16.52 23.08 -15.53 23.08 -14.5 23.09 C-12.03 23.1 -9.55 23.12 -7.08 23.14 C-7.09 22.14 -7.09 22.14 -7.1 21.13 C-7.12 18.16 -7.13 15.18 -7.14 12.2 C-7.15 11.16 -7.16 10.12 -7.17 9.04 C-7.17 7.56 -7.17 7.56 -7.18 6.05 C-7.19 4.67 -7.19 4.67 -7.2 3.27 C-6.96 -1.23 -3.77 0.01 0 0 Z " fill="#08ACAA" transform="translate(330.08203125,76.86328125)"/>
<path d="M0 0 C1.44 0.18 2.88 0.39 4.31 0.62 C5.11 0.74 5.91 0.86 6.74 0.98 C10.13 2.51 10.58 4.6 12 8 C12.72 10.91 13.18 13.83 13.61 16.8 C13.75 17.65 13.88 18.51 14.02 19.39 C14.46 22.17 14.89 24.96 15.31 27.75 C15.92 31.63 16.53 35.52 17.14 39.4 C17.3 40.38 17.45 41.35 17.61 42.36 C18.6 48.65 19.68 54.92 20.82 61.19 C20.97 61.98 21.11 62.76 21.26 63.57 C21.8 66.54 22.35 69.5 22.91 72.47 C23.29 74.47 23.66 76.48 24.03 78.49 C24.35 80.17 24.35 80.17 24.67 81.88 C25.02 85.15 24.69 87.8 24 91 C19.99 90.58 16 90.16 12.02 89.51 C2.57 87.98 -6.63 87.64 -16.19 87.69 C-17.34 87.69 -17.34 87.69 -18.52 87.69 C-37.03 87.78 -53.23 90.64 -70.85 96.32 C-73.88 97.28 -76.94 98.14 -80 99 C-70.02 87.75 -51.99 82.9 -38 79 C-37.32 78.81 -36.63 78.61 -35.93 78.41 C-20.83 74.38 -4.49 75.72 11 76 C10.82 75.17 10.82 75.17 10.64 74.32 C9.07 66.79 7.93 59.21 6.84 51.6 C6.64 50.24 6.44 48.87 6.24 47.5 C5.83 44.66 5.41 41.82 5 38.98 C4.48 35.34 3.95 31.7 3.42 28.06 C3.01 25.25 2.6 22.44 2.19 19.63 C1.9 17.63 1.61 15.64 1.32 13.65 C1.15 12.44 0.97 11.23 0.79 9.99 C0.64 8.92 0.49 7.86 0.33 6.77 C0 4 0 4 0 0 Z " fill="#273573" transform="translate(343,194)"/>
<path d="M0 0 C-0.56 9.29 -1.49 18.45 -2.81 27.66 C-2.99 28.89 -3.16 30.13 -3.34 31.4 C-3.7 33.98 -4.07 36.56 -4.44 39.13 C-5 43.08 -5.56 47.03 -6.12 50.98 C-6.47 53.5 -6.83 56.02 -7.19 58.54 C-7.35 59.71 -7.52 60.89 -7.69 62.1 C-7.85 63.2 -8.01 64.29 -8.17 65.42 C-8.3 66.38 -8.44 67.34 -8.58 68.33 C-8.99 70.9 -9.47 73.45 -10 76 C-9.14 75.76 -9.14 75.76 -8.26 75.51 C15.22 70.18 43.81 79.31 64 91 C66.78 92.87 69.44 94.83 72 97 C71.01 97.5 71.01 97.5 70 98 C67.67 97.16 65.41 96.26 63.12 95.31 C50.13 90.17 35.96 87.43 22 87 C20.87 86.96 19.74 86.92 18.57 86.88 C7.78 86.69 -3.19 87.42 -13.79 89.56 C-16.87 90.17 -19.87 90.06 -23 90 C-23.9 86.35 -23.99 83.58 -23.35 79.89 C-23.18 78.89 -23.02 77.89 -22.84 76.87 C-22.65 75.79 -22.46 74.72 -22.27 73.61 C-22.08 72.48 -21.89 71.35 -21.69 70.19 C-21.07 66.56 -20.44 62.94 -19.81 59.31 C-19.21 55.78 -18.6 52.24 -18 48.71 C-17.6 46.35 -17.19 44 -16.78 41.65 C-15.75 35.63 -14.79 29.62 -13.95 23.57 C-13.78 22.38 -13.61 21.19 -13.44 19.96 C-13.12 17.7 -12.82 15.43 -12.53 13.16 C-12.39 12.14 -12.24 11.13 -12.1 10.08 C-11.98 9.19 -11.86 8.31 -11.74 7.39 C-10.81 4.38 -9.39 3.02 -7 1 C-4.54 -0.23 -2.72 -0.07 0 0 Z " fill="#233277" transform="translate(166,195)"/>
<path d="M0 0 C1.13 0.01 2.25 0.01 3.41 0.02 C4.63 0.02 5.84 0.02 7.09 0.03 C8.37 0.03 9.65 0.04 10.97 0.05 C12.25 0.06 13.54 0.06 14.86 0.06 C18.04 0.08 21.23 0.09 24.41 0.11 C25.69 2.68 25.53 4.51 25.52 7.39 C25.52 8.49 25.52 9.59 25.52 10.73 C25.52 11.92 25.51 13.11 25.51 14.34 C25.5 15.56 25.5 16.78 25.5 18.03 C25.5 21.93 25.48 25.84 25.47 29.74 C25.47 32.38 25.46 35.02 25.46 37.66 C25.45 44.14 25.43 50.63 25.41 57.11 C24.42 57.11 23.43 57.11 22.41 57.11 C22.41 56.45 22.41 55.79 22.41 55.11 C21.59 54.87 20.76 54.62 19.92 54.36 C15.85 52.91 12.12 51.08 8.28 49.11 C7.58 48.76 6.88 48.4 6.15 48.04 C4.85 47.37 3.54 46.71 2.24 46.04 C0.3 45.06 -1.65 44.09 -3.59 43.11 C-3.62 37.15 -3.63 31.19 -3.65 25.22 C-3.65 23.19 -3.66 21.16 -3.67 19.13 C-3.68 16.22 -3.69 13.31 -3.69 10.4 C-3.69 9.49 -3.7 8.57 -3.71 7.63 C-3.71 5.46 -3.65 3.29 -3.59 1.11 C-2.59 0.11 -2.59 0.11 0 0 Z " fill="#3DA5D9" transform="translate(194.592041015625,176.886474609375)"/>
<path d="M0 0 C3.56 0.19 3.56 0.19 5.56 2.19 C6.06 4.46 6.06 4.46 6.42 7.33 C6.62 8.95 6.62 8.95 6.83 10.59 C7.04 12.35 7.04 12.35 7.25 14.14 C7.48 15.95 7.48 15.95 7.71 17.8 C8.03 20.36 8.34 22.93 8.65 25.5 C9.12 29.38 9.6 33.26 10.08 37.15 C10.39 39.65 10.7 42.14 11 44.64 C11.22 46.36 11.22 46.36 11.43 48.11 C13.37 64.22 13.37 64.22 13.56 72.19 C11.67 74.08 8.9 73.36 6.38 73.43 C-22.81 74.25 -51.88 83.71 -75.44 101.19 C-76.1 100.86 -76.76 100.53 -77.44 100.19 C-70.94 92.97 -63.45 87.57 -55.44 82.19 C-54.62 81.63 -53.79 81.07 -52.95 80.5 C-42.04 73.56 -29.7 68.71 -17.44 64.75 C-16.69 64.5 -15.93 64.26 -15.16 64 C-9.62 62.29 -4.21 61.58 1.56 61.19 C1.45 60.29 1.34 59.4 1.23 58.48 C-2.49 28.35 -2.49 28.35 -3.69 16.56 C-3.77 15.8 -3.85 15.03 -3.93 14.24 C-4.36 9.88 -4.6 5.57 -4.44 1.19 C-3.44 0.19 -3.44 0.19 0 0 Z " fill="#2A366C" transform="translate(333.4375,189.8125)"/>
<path d="M0 0 C1.12 0 2.24 0.01 3.39 0.01 C4.56 0.02 5.72 0.03 6.93 0.04 C8.1 0.04 9.28 0.04 10.5 0.05 C13.41 0.06 16.32 0.08 19.24 0.1 C19.73 1.09 19.73 1.09 20.24 2.1 C19.91 2.76 19.58 3.42 19.24 4.1 C10.33 4.1 1.42 4.1 -7.76 4.1 C-7.76 32.48 -7.76 60.86 -7.76 90.1 C-4.79 87.13 -1.82 84.16 1.24 81.1 C3.1 79.48 4.99 77.89 6.93 76.35 C7.8 75.65 8.67 74.96 9.56 74.24 C12.24 72.1 12.24 72.1 15.36 70.33 C17.67 68.38 18.2 67.3 18.8 64.29 C19.03 60.6 19.07 56.96 19.04 53.27 C19.05 51.91 19.07 50.54 19.08 49.18 C19.12 45.61 19.12 42.05 19.11 38.48 C19.11 34.83 19.15 31.18 19.18 27.54 C19.23 20.39 19.25 13.24 19.24 6.1 C19.57 6.1 19.9 6.1 20.24 6.1 C20.57 25.24 20.9 44.38 21.24 64.1 C21.57 60.47 21.9 56.84 22.24 53.1 C22.57 53.1 22.9 53.1 23.24 53.1 C23.61 65.77 23.61 65.77 21.24 71.1 C22.23 71.1 23.22 71.1 24.24 71.1 C23.91 69.78 23.58 68.46 23.24 67.1 C27.07 64.39 29.56 63.77 34.24 64.1 C34.24 64.76 34.24 65.42 34.24 66.1 C32.7 67.42 32.7 67.42 30.54 68.93 C29.75 69.5 28.96 70.06 28.14 70.64 C27.29 71.25 26.43 71.85 25.55 72.47 C18.72 77.36 12.33 82.37 6.51 88.45 C2.95 92.01 0.22 92.82 -4.76 93.1 C-4.76 94.09 -4.76 95.08 -4.76 96.1 C-5.38 96.18 -6 96.26 -6.64 96.35 C-8.93 96.89 -8.93 96.89 -9.82 99.04 C-10.13 99.72 -10.44 100.4 -10.76 101.1 C-11.75 101.76 -12.74 102.42 -13.76 103.1 C-14.19 104.09 -14.19 104.09 -14.64 105.1 C-16.19 107.86 -17.79 108.18 -20.76 109.1 C-22.09 109.46 -23.42 109.8 -24.76 110.1 C-24.82 110.72 -24.89 111.34 -24.95 111.97 C-25.22 112.67 -25.49 113.38 -25.76 114.1 C-27.42 114.79 -29.09 115.45 -30.76 116.1 C-33.73 118.73 -35.5 120.32 -36.76 124.1 C-41.06 123.62 -43.06 122.48 -45.76 119.1 C-47.18 115.23 -46.92 111.15 -46.92 107.09 C-46.93 106.28 -46.93 105.48 -46.94 104.65 C-46.95 102 -46.96 99.35 -46.96 96.69 C-46.97 94.85 -46.98 93 -46.98 91.15 C-46.99 87.29 -47 83.42 -47 79.55 C-47.01 74.6 -47.03 69.64 -47.06 64.68 C-47.08 60.87 -47.08 57.06 -47.09 53.25 C-47.09 51.42 -47.1 49.6 -47.11 47.77 C-47.13 45.22 -47.12 42.66 -47.12 40.11 C-47.13 39.35 -47.14 38.6 -47.15 37.82 C-47.12 34.67 -46.95 32.44 -45.43 29.66 C-41.44 25.92 -35.85 26.94 -30.76 27.1 C-28.45 27.18 -26.14 27.28 -23.82 27.41 C-22.2 27.5 -22.2 27.5 -20.55 27.59 C-17.76 28.1 -17.76 28.1 -15.95 29.14 C-12.53 34.79 -13.62 43.58 -13.63 49.98 C-13.63 51 -13.63 52.02 -13.63 53.08 C-13.63 55.22 -13.63 57.36 -13.63 59.51 C-13.64 62.79 -13.63 66.06 -13.62 69.34 C-13.63 71.43 -13.63 73.52 -13.63 75.61 C-13.63 76.59 -13.62 77.56 -13.62 78.57 C-13.63 79.94 -13.63 79.94 -13.63 81.34 C-13.63 82.14 -13.63 82.94 -13.63 83.77 C-13.77 86.29 -14.21 88.64 -14.76 91.1 C-13.11 92.09 -11.46 93.08 -9.76 94.1 C-10.09 93.11 -10.42 92.12 -10.76 91.1 C-10.86 88.37 -10.91 85.66 -10.91 82.93 C-10.91 82.09 -10.91 81.26 -10.92 80.4 C-10.93 77.65 -10.93 74.89 -10.93 72.13 C-10.93 70.22 -10.94 68.3 -10.94 66.39 C-10.95 62.38 -10.95 58.36 -10.95 54.35 C-10.95 49.2 -10.96 44.06 -10.98 38.91 C-10.99 34.96 -10.99 31 -10.99 27.05 C-10.99 25.15 -11 23.25 -11 21.36 C-11.01 18.7 -11.01 16.05 -11 13.4 C-11.01 12.61 -11.02 11.83 -11.02 11.02 C-10.98 4.02 -10.98 4.02 -8.76 1.1 C-5.58 0.04 -3.34 -0.02 0 0 Z M-44.76 31.1 C-44.88 33.79 -44.93 36.46 -44.94 39.15 C-44.95 39.99 -44.95 40.84 -44.96 41.71 C-44.98 44.51 -44.99 47.32 -45 50.12 C-45 51.08 -45.01 52.03 -45.01 53.02 C-45.03 58.07 -45.05 63.12 -45.06 68.18 C-45.07 73.41 -45.1 78.64 -45.14 83.87 C-45.17 87.89 -45.18 91.9 -45.18 95.91 C-45.19 97.84 -45.2 99.77 -45.22 101.7 C-45.24 104.4 -45.24 107.09 -45.23 109.79 C-45.24 110.59 -45.26 111.39 -45.27 112.21 C-45.27 116.65 -45.27 116.65 -42.73 120.12 C-42.08 120.44 -41.43 120.76 -40.76 121.1 C-31 116.57 -22.07 108.41 -16.76 99.1 C-13.34 88.8 -14.73 76.9 -15.33 66.26 C-15.53 62.3 -15.61 58.34 -15.7 54.38 C-14.9 41.3 -14.9 41.3 -17.76 30.1 C-19.68 30 -21.59 29.97 -23.51 29.96 C-25.26 29.96 -25.26 29.96 -27.04 29.96 C-28.88 29.97 -28.88 29.97 -30.76 29.97 C-31.99 29.97 -33.22 29.96 -34.48 29.96 C-35.65 29.96 -36.81 29.96 -38.01 29.96 C-39.09 29.97 -40.17 29.97 -41.28 29.97 C-43.7 29.82 -43.7 29.82 -44.76 31.1 Z " fill="#EBF3F6" transform="translate(272.76171875,121.90234375)"/>
<path d="M0 0 C3.12 -0.38 3.12 -0.38 6 0 C7 1 7 1 7.14 3.08 C7.12 10.12 6.64 17.02 5.91 24.01 C5.8 25.11 5.68 26.2 5.57 27.33 C5.22 30.78 4.86 34.23 4.5 37.69 C4.26 40.05 4.02 42.4 3.78 44.76 C3.19 50.51 2.6 56.26 2 62 C3.08 62.26 4.16 62.52 5.28 62.79 C6.72 63.15 8.16 63.5 9.61 63.86 C10.67 64.11 10.67 64.11 11.76 64.37 C27.03 68.14 39.03 76 51 86 C50.67 86.66 50.34 87.32 50 88 C49.48 87.78 48.96 87.56 48.42 87.33 C31.87 80.37 16.12 75.38 -1.94 74.44 C-3.11 74.37 -3.11 74.37 -4.3 74.31 C-6.2 74.2 -8.1 74.1 -10 74 C-10.24 66 -9.51 58.23 -8.57 50.29 C-8.43 49.01 -8.28 47.73 -8.12 46.4 C-7.81 43.71 -7.49 41.01 -7.17 38.31 C-6.77 34.87 -6.37 31.42 -5.98 27.97 C-5.61 24.66 -5.22 21.35 -4.82 18.04 C-4.69 16.81 -4.55 15.58 -4.41 14.31 C-4.2 12.58 -4.2 12.58 -3.98 10.82 C-3.87 9.82 -3.75 8.81 -3.63 7.77 C-2.92 4.65 -1.93 2.55 0 0 Z " fill="#2B3667" transform="translate(173,190)"/>
<path d="M0 0 C1.32 0.33 2.64 0.66 4 1 C6.7 16.65 9.12 32.33 11.29 48.06 C11.76 51.45 12.23 54.84 12.71 58.22 C13.01 60.39 13.31 62.55 13.61 64.71 C13.75 65.72 13.89 66.73 14.04 67.77 C14.16 68.69 14.29 69.61 14.42 70.56 C14.53 71.38 14.65 72.19 14.76 73.02 C15 75 15 75 15 77 C13.68 77.02 13.68 77.02 12.33 77.04 C-16.76 77.58 -42.5 80.33 -68.34 94.98 C-71.79 96.94 -75.32 98.5 -79 100 C-79 99.34 -79 98.68 -79 98 C-79.66 97.67 -80.32 97.34 -81 97 C-55.11 77.88 -24.7 69.94 7 69 C5.69 52.36 3.72 35.82 1.68 19.26 C1.57 18.36 1.46 17.46 1.34 16.53 C1.14 14.82 0.92 13.11 0.71 11.41 C0.25 7.58 -0.13 3.87 0 0 Z " fill="#E5EBFA" transform="translate(339,193)"/>
<path d="M0 0 C0 0.66 0 1.32 0 2 C0.99 2.33 1.98 2.66 3 3 C3 9.6 3 16.2 3 23 C8.94 23 14.88 23 21 23 C21 23.66 21 24.32 21 25 C21.99 25 22.98 25 24 25 C25.52 28.03 25.25 30.88 25.31 34.25 C25.37 36.21 25.37 36.21 25.43 38.2 C24.92 42.72 24.19 44.75 21 48 C18.08 48.85 15.28 48.89 12.25 48.88 C11.46 48.9 10.66 48.92 9.85 48.94 C7.9 48.98 5.95 49 4 49 C4.02 50.06 4.05 51.12 4.07 52.21 C4.09 53.6 4.11 54.99 4.12 56.38 C4.14 57.07 4.16 57.77 4.18 58.49 C4.19 60.33 4.1 62.17 4 64 C3.34 64.66 2.68 65.32 2 66 C1.36 68.07 1.36 68.07 1 70 C-1.9 70.08 -4.79 70.14 -7.69 70.19 C-8.5 70.21 -9.32 70.24 -10.16 70.26 C-13.71 70.31 -16.62 70.11 -20.03 69.09 C-23.25 65.68 -22.78 61.84 -22.81 57.31 C-22.84 56.42 -22.86 55.53 -22.89 54.61 C-22.95 52.4 -22.98 50.2 -23 48 C-24.04 48.02 -25.07 48.05 -26.14 48.07 C-27.51 48.09 -28.88 48.11 -30.25 48.12 C-30.93 48.14 -31.61 48.16 -32.32 48.18 C-39.18 48.24 -39.18 48.24 -42 46 C-44.04 42.31 -44.25 39.11 -44.19 34.94 C-44.18 33.92 -44.17 32.89 -44.17 31.84 C-44.02 29.4 -43.7 27.33 -43 25 C-42.34 25 -41.68 25 -41 25 C-41 24.34 -41 23.68 -41 23 C-39.95 22.94 -38.9 22.88 -37.82 22.82 C-36.45 22.73 -35.07 22.65 -33.69 22.56 C-33 22.52 -32.31 22.48 -31.6 22.44 C-28.53 22.25 -25.93 21.98 -23 21 C-22.97 19.82 -22.95 18.64 -22.92 17.42 C-22.87 15.86 -22.81 14.31 -22.75 12.75 C-22.73 11.58 -22.73 11.58 -22.71 10.39 C-22.55 6.75 -22.39 4.58 -20.32 1.5 C-14.75 -2.11 -6.25 -1.56 0 0 Z M-19 4 C-19.09 5.63 -19.11 7.27 -19.1 8.91 C-19.09 10.39 -19.09 10.39 -19.09 11.91 C-19.08 12.95 -19.07 13.99 -19.06 15.06 C-19.06 16.11 -19.05 17.15 -19.05 18.23 C-19.04 20.82 -19.02 23.41 -19 26 C-19.63 25.99 -20.26 25.99 -20.91 25.98 C-23.75 25.96 -26.6 25.95 -29.44 25.94 C-30.93 25.92 -30.93 25.92 -32.45 25.91 C-33.39 25.91 -34.34 25.91 -35.31 25.9 C-36.18 25.9 -37.06 25.89 -37.96 25.89 C-39.99 25.77 -39.99 25.77 -41 27 C-41.07 29.86 -41.09 32.7 -41.06 35.56 C-41.06 36.37 -41.05 37.18 -41.05 38.01 C-41.04 40 -41.02 42 -41 44 C-38.6 45.2 -37.11 45.11 -34.43 45.1 C-33.09 45.09 -33.09 45.09 -31.71 45.09 C-30.78 45.08 -29.84 45.07 -28.88 45.06 C-27.46 45.06 -27.46 45.06 -26.01 45.05 C-23.67 45.04 -21.34 45.02 -19 45 C-19.02 45.63 -19.03 46.25 -19.05 46.9 C-19.11 49.72 -19.15 52.55 -19.19 55.38 C-19.21 56.36 -19.24 57.34 -19.26 58.36 C-19.27 59.3 -19.28 60.24 -19.29 61.21 C-19.31 62.08 -19.32 62.95 -19.34 63.85 C-19.23 64.56 -19.12 65.27 -19 66 C-15.43 68.38 -13.73 68.27 -9.5 68.25 C-8.36 68.26 -7.21 68.26 -6.03 68.27 C-2.82 68.23 -2.82 68.23 0 66 C0.42 63.78 0.42 63.78 0.29 61.21 C0.28 60.27 0.27 59.33 0.26 58.36 C0.24 57.37 0.21 56.39 0.19 55.38 C0.17 54.38 0.16 53.39 0.15 52.37 C0.11 49.91 0.06 47.46 0 45 C0.89 45.02 0.89 45.02 1.8 45.03 C4.49 45.07 7.18 45.1 9.88 45.12 C10.81 45.14 11.75 45.16 12.71 45.18 C13.61 45.18 14.51 45.19 15.43 45.2 C16.67 45.21 16.67 45.21 17.94 45.23 C20.22 45.19 20.22 45.19 22 43 C22.17 40.27 22.23 37.66 22.19 34.94 C22.19 34.19 22.19 33.45 22.19 32.68 C22.49 29.04 22.49 29.04 21 26 C19.44 25.91 17.87 25.89 16.31 25.9 C14.89 25.91 14.89 25.91 13.45 25.91 C11.96 25.92 11.96 25.92 10.44 25.94 C9.44 25.94 8.44 25.95 7.42 25.95 C4.94 25.96 2.47 25.98 0 26 C0.01 25.34 0.01 24.68 0.02 24 C0.04 21.02 0.05 18.04 0.06 15.06 C0.08 13.5 0.08 13.5 0.09 11.91 C0.09 10.92 0.09 9.93 0.1 8.91 C0.1 7.99 0.11 7.08 0.11 6.13 C0.24 4.02 0.24 4.02 -1 3 C-3.84 2.9 -6.66 2.86 -9.5 2.88 C-10.3 2.87 -11.1 2.87 -11.92 2.86 C-15.77 2.49 -15.77 2.49 -19 4 Z " fill="#CAF8F8" transform="translate(342,74)"/>
<path d="M0 0 C4.31 -0.03 8.62 -0.05 12.94 -0.06 C14.17 -0.07 15.4 -0.08 16.67 -0.09 C17.84 -0.09 19.01 -0.09 20.21 -0.1 C21.84 -0.11 21.84 -0.11 23.5 -0.11 C26 0 26 0 27 1 C27.14 2.89 27.21 4.78 27.26 6.68 C27.29 7.89 27.31 9.11 27.34 10.36 C27.43 15.21 27.5 20.07 27.55 24.92 C27.58 28.6 27.64 32.28 27.73 35.96 C27.83 39.52 27.88 43.08 27.89 46.64 C27.91 48.65 27.98 50.66 28.05 52.67 C28.03 61.65 28.03 61.65 25.04 65.58 C22.79 67.6 20.52 69.32 18 71 C17 71.83 15.99 72.65 14.96 73.5 C13.68 74.52 13.68 74.52 12.38 75.56 C8.41 78.77 4.75 82.09 1.24 85.79 C0 87 0 87 -1 87 C-1.02 75.95 -1.04 64.9 -1.05 53.86 C-1.06 48.73 -1.06 43.6 -1.08 38.47 C-1.09 33.52 -1.09 28.57 -1.09 23.63 C-1.1 21.73 -1.1 19.84 -1.11 17.95 C-1.11 15.31 -1.11 12.67 -1.11 10.03 C-1.12 9.24 -1.12 8.45 -1.12 7.64 C-1.11 2.23 -1.11 2.23 0 0 Z M4 2 C2.09 26.69 1.76 51.24 2 76 C2.99 76 3.98 76 5 76 C5 75.34 5 74.68 5 74 C6.64 74.09 6.64 74.09 8.31 74.19 C11.89 74.34 11.89 74.34 13.94 72.62 C15.18 71.04 15.18 71.04 15 69 C16.54 68.23 18.08 67.46 19.62 66.69 C20.41 66.13 21.19 65.57 22 65 C22 63.68 22 62.36 22 61 C22.66 61 23.32 61 24 61 C25.3 58.41 25.12 56.54 25.11 53.63 C25.11 51.95 25.11 51.95 25.11 50.24 C25.11 49.02 25.1 47.81 25.1 46.55 C25.1 45.31 25.09 44.07 25.09 42.8 C25.09 39.5 25.08 36.2 25.07 32.9 C25.06 29.54 25.05 26.17 25.05 22.81 C25.04 16.21 25.02 9.6 25 3 C22.65 1.83 21.26 1.88 18.65 1.9 C17.37 1.91 17.37 1.91 16.07 1.91 C15.18 1.92 14.29 1.93 13.38 1.94 C12.03 1.94 12.03 1.94 10.66 1.95 C8.44 1.96 6.22 1.98 4 2 Z " fill="#409FAB" transform="translate(265,126)"/>
<path d="M0 0 C-0.56 9.35 -1.51 18.57 -2.85 27.84 C-3.02 29.08 -3.2 30.33 -3.38 31.61 C-3.84 34.87 -4.31 38.13 -4.78 41.38 C-5.26 44.73 -5.73 48.08 -6.21 51.42 C-7.13 57.95 -8.06 64.47 -9 71 C-9.99 71 -10.98 71 -12 71 C-11.88 68.17 -11.76 65.33 -11.62 62.5 C-11.59 61.71 -11.56 60.92 -11.53 60.1 C-11.23 53.89 -10.38 48.21 -7.9 42.45 C-6.71 39.21 -6.68 36.32 -6.56 32.88 C-6.14 23.46 -4.6 14.28 -3 5 C-4.32 4.67 -5.64 4.34 -7 4 C-7.05 4.56 -7.1 5.11 -7.15 5.69 C-7.58 10.14 -8.3 14.26 -9.47 18.59 C-10.17 21.79 -10.54 25 -10.94 28.25 C-11.52 32.96 -12.29 37.43 -13.56 42 C-15.44 48.94 -15.72 55.84 -16 63 C-16.66 63 -17.32 63 -18 63 C-17.98 63.78 -17.96 64.57 -17.94 65.38 C-18 68 -18 68 -19 70 C-18.97 72.01 -18.94 74.03 -18.9 76.04 C-19.02 78.43 -19.86 79.93 -21 82 C-21 83.65 -21 85.3 -21 87 C-17.37 87 -13.74 87 -10 87 C-10 86.34 -10 85.68 -10 85 C1.63 83.6 13.31 83.9 25 84 C25.33 84.66 25.66 85.32 26 86 C25.15 86.05 24.31 86.1 23.44 86.15 C20.24 86.34 17.04 86.54 13.84 86.74 C12.47 86.83 11.1 86.91 9.72 86.99 C1.88 87.46 -5.79 88.13 -13.51 89.59 C-16.74 90.12 -19.74 90.15 -23 90 C-23.9 86.35 -23.99 83.58 -23.35 79.89 C-23.18 78.89 -23.02 77.89 -22.84 76.87 C-22.65 75.79 -22.46 74.72 -22.27 73.61 C-22.08 72.48 -21.89 71.35 -21.69 70.19 C-21.07 66.56 -20.44 62.94 -19.81 59.31 C-19.21 55.78 -18.6 52.24 -18 48.71 C-17.6 46.35 -17.19 44 -16.78 41.65 C-15.75 35.63 -14.79 29.62 -13.95 23.57 C-13.78 22.38 -13.61 21.19 -13.44 19.96 C-13.12 17.7 -12.82 15.43 -12.53 13.16 C-12.39 12.14 -12.24 11.13 -12.1 10.08 C-11.98 9.19 -11.86 8.31 -11.74 7.39 C-10.81 4.38 -9.39 3.02 -7 1 C-4.54 -0.23 -2.72 -0.07 0 0 Z " fill="#2C3667" transform="translate(166,195)"/>
<path d="M0 0 C1.08 0.06 2.16 0.12 3.28 0.18 C6.06 0.69 6.06 0.69 7.88 1.73 C11.3 7.38 10.21 16.17 10.2 22.57 C10.2 23.59 10.2 24.61 10.2 25.67 C10.2 27.81 10.2 29.95 10.19 32.1 C10.19 35.38 10.19 38.65 10.2 41.93 C10.2 44.02 10.2 46.11 10.2 48.2 C10.2 49.18 10.2 50.15 10.2 51.16 C10.2 52.53 10.2 52.53 10.19 53.93 C10.19 54.73 10.19 55.53 10.19 56.36 C10.06 58.69 10.06 58.69 9.52 61.33 C8.88 63.71 8.88 63.71 9.69 66.12 C10.22 69.79 8.98 71.58 7.06 74.69 C5.13 76.81 5.13 76.81 3.06 78.69 C0.04 81.27 0.04 81.27 -1.38 84.81 C-1.56 85.43 -1.75 86.05 -1.94 86.69 C-3.59 87.38 -5.26 88.04 -6.94 88.69 C-9.91 91.32 -11.68 92.91 -12.94 96.69 C-17.24 96.21 -19.23 95.07 -21.94 91.69 C-23.35 87.82 -23.09 83.74 -23.1 79.68 C-23.1 78.87 -23.11 78.07 -23.11 77.24 C-23.13 74.59 -23.14 71.93 -23.14 69.28 C-23.15 67.44 -23.15 65.59 -23.16 63.74 C-23.17 59.88 -23.17 56.01 -23.18 52.14 C-23.18 47.19 -23.21 42.23 -23.24 37.27 C-23.25 33.46 -23.26 29.65 -23.26 25.84 C-23.26 24.01 -23.27 22.19 -23.29 20.36 C-23.3 17.81 -23.3 15.25 -23.29 12.7 C-23.3 11.94 -23.31 11.19 -23.32 10.41 C-23.3 7.26 -23.13 5.03 -21.6 2.25 C-16.5 -2.54 -6.41 -0.35 0 0 Z M-20.94 3.69 C-21.05 6.38 -21.11 9.05 -21.11 11.74 C-21.12 12.58 -21.13 13.43 -21.13 14.3 C-21.15 17.1 -21.17 19.91 -21.18 22.71 C-21.18 23.67 -21.18 24.62 -21.19 25.61 C-21.21 30.66 -21.22 35.71 -21.23 40.77 C-21.24 46 -21.28 51.23 -21.32 56.46 C-21.34 60.48 -21.35 64.49 -21.36 68.5 C-21.36 70.43 -21.37 72.36 -21.39 74.29 C-21.42 76.99 -21.41 79.68 -21.41 82.38 C-21.42 83.18 -21.43 83.98 -21.45 84.8 C-21.44 89.24 -21.44 89.24 -18.91 92.71 C-18.26 93.03 -17.61 93.35 -16.94 93.69 C-7.18 89.16 1.76 81 7.06 71.69 C10.48 61.39 9.1 49.49 8.49 38.85 C8.29 34.89 8.22 30.93 8.13 26.97 C8.92 13.89 8.92 13.89 6.06 2.69 C4.15 2.59 2.23 2.56 0.31 2.55 C-1.44 2.55 -1.44 2.55 -3.22 2.55 C-5.06 2.56 -5.06 2.56 -6.94 2.56 C-8.16 2.56 -9.39 2.55 -10.66 2.55 C-11.82 2.55 -12.99 2.55 -14.19 2.55 C-15.27 2.56 -16.34 2.56 -17.45 2.56 C-19.88 2.41 -19.88 2.41 -20.94 3.69 Z " fill="#D3FAFD" transform="translate(248.9375,149.3125)"/>
<path d="M0 0 C0.8 0 1.6 0.01 2.42 0.01 C3.61 0.01 3.61 0.01 4.84 0 C10.79 0.01 10.79 0.01 11.92 1.14 C12 2.77 12.02 4.41 12.02 6.05 C12.01 7.04 12.01 8.03 12.01 9.04 C11.99 10.61 11.99 10.61 11.98 12.2 C11.98 13.24 11.97 14.29 11.97 15.37 C11.95 17.96 11.94 20.55 11.92 23.14 C12.55 23.13 13.18 23.13 13.83 23.12 C16.67 23.1 19.51 23.09 22.36 23.07 C23.85 23.06 23.85 23.06 25.37 23.05 C26.78 23.04 26.78 23.04 28.23 23.04 C29.54 23.03 29.54 23.03 30.88 23.02 C32.92 23.14 32.92 23.14 33.92 24.14 C34.04 26.79 34.1 29.42 34.11 32.07 C34.12 32.82 34.13 33.56 34.14 34.32 C34.15 36.26 34.04 38.2 33.92 40.14 C31.92 42.14 31.92 42.14 29.85 42.36 C28.61 42.35 28.61 42.35 27.35 42.33 C26.45 42.33 25.56 42.32 24.63 42.31 C23.7 42.3 22.76 42.28 21.79 42.26 C20.85 42.25 19.9 42.24 18.93 42.23 C16.59 42.21 14.26 42.18 11.92 42.14 C12.41 41.15 12.41 41.15 12.92 40.14 C18.86 39.81 24.8 39.48 30.92 39.14 C30.92 34.85 30.92 30.56 30.92 26.14 C24.32 25.81 17.72 25.48 10.92 25.14 C10.92 24.48 10.92 23.82 10.92 23.14 C10.26 23.14 9.6 23.14 8.92 23.14 C8.92 16.54 8.92 9.94 8.92 3.14 C6.23 3.35 6.23 3.35 3.48 3.57 C2.47 3.66 1.46 3.74 0.42 3.82 C-2.02 3.87 -2.02 3.87 -3.08 5.14 C-3.11 8.94 -3.05 12.72 -2.96 16.52 C-2.94 17.32 -2.93 18.12 -2.92 18.94 C-2.91 19.67 -2.89 20.41 -2.87 21.16 C-3.08 23.14 -3.08 23.14 -5.08 26.14 C-7.24 26.48 -7.24 26.48 -9.87 26.43 C-10.81 26.42 -11.75 26.41 -12.72 26.4 C-14.2 26.36 -14.2 26.36 -15.71 26.32 C-17.2 26.3 -17.2 26.3 -18.71 26.28 C-21.17 26.25 -23.63 26.2 -26.08 26.14 C-26 26.82 -25.91 27.51 -25.83 28.22 C-25.73 29.12 -25.62 30.02 -25.52 30.95 C-25.42 31.84 -25.31 32.74 -25.2 33.66 C-25.08 36.14 -25.08 36.14 -26.08 39.14 C-16.68 38.64 -16.68 38.64 -7.08 38.14 C-7.08 39.46 -7.08 40.78 -7.08 42.14 C-10.37 42.17 -13.67 42.18 -16.96 42.2 C-17.89 42.21 -18.83 42.22 -19.8 42.22 C-21.14 42.23 -21.14 42.23 -22.51 42.23 C-23.75 42.24 -23.75 42.24 -25.02 42.25 C-27.08 42.14 -27.08 42.14 -29.08 41.14 C-29.11 38.32 -29.13 35.51 -29.14 32.7 C-29.15 31.9 -29.16 31.09 -29.17 30.27 C-29.18 28.22 -29.13 26.18 -29.08 24.14 C-28.08 23.14 -28.08 23.14 -26.04 23.02 C-25.17 23.03 -24.29 23.03 -23.39 23.04 C-22.45 23.04 -21.5 23.05 -20.53 23.05 C-19.04 23.06 -19.04 23.06 -17.52 23.07 C-16.52 23.08 -15.53 23.08 -14.5 23.09 C-12.03 23.1 -9.55 23.12 -7.08 23.14 C-7.09 22.14 -7.09 22.14 -7.1 21.13 C-7.12 18.16 -7.13 15.18 -7.14 12.2 C-7.15 11.16 -7.16 10.12 -7.17 9.04 C-7.17 7.56 -7.17 7.56 -7.18 6.05 C-7.19 4.67 -7.19 4.67 -7.2 3.27 C-6.96 -1.23 -3.77 0.01 0 0 Z " fill="#21A3A0" transform="translate(330.08203125,76.86328125)"/>
<path d="M0 0 C1.17 -0 2.33 -0 3.53 -0 C4.76 -0 5.99 0 7.25 0.01 C9.09 0 9.09 0 10.97 -0 C12.72 -0 12.72 -0 14.5 0 C15.58 0 16.66 0 17.77 0 C20.25 0.13 20.25 0.13 21.25 1.13 C22.14 9.59 22.26 18.17 22.47 26.67 C22.57 30.61 22.72 34.54 22.96 38.48 C24.67 66.34 24.67 66.34 16.25 76.25 C11.16 81.85 5.36 86.67 -0.75 91.13 C-2.75 90.13 -4.75 89.13 -6.75 88.13 C-6.77 76.81 -6.79 65.48 -6.8 54.15 C-6.81 48.9 -6.81 43.64 -6.83 38.38 C-6.84 33.31 -6.84 28.24 -6.84 23.17 C-6.85 21.23 -6.85 19.29 -6.86 17.35 C-6.86 14.64 -6.86 11.94 -6.86 9.23 C-6.87 8.42 -6.87 7.61 -6.87 6.78 C-6.86 0.14 -6.53 0.01 0 0 Z M-3.75 1.13 C-5.28 4.19 -4.89 7.39 -4.88 10.75 C-4.88 11.53 -4.88 12.32 -4.88 13.13 C-4.89 15.73 -4.89 18.34 -4.88 20.94 C-4.88 22.75 -4.88 24.55 -4.89 26.36 C-4.89 30.15 -4.89 33.94 -4.88 37.73 C-4.87 42.59 -4.88 47.45 -4.88 52.31 C-4.89 56.04 -4.89 59.77 -4.88 63.5 C-4.88 65.29 -4.88 67.08 -4.89 68.88 C-4.89 71.38 -4.88 73.88 -4.88 76.39 C-4.88 77.13 -4.88 77.88 -4.89 78.64 C-4.87 81.75 -4.74 84.16 -3.75 87.13 C-2.1 87.13 -0.45 87.13 1.25 87.13 C1.75 86.14 1.75 86.14 2.25 85.13 C3.74 84.64 3.74 84.64 5.25 84.13 C5.25 82.81 5.25 81.49 5.25 80.13 C6.24 80.13 7.23 80.13 8.25 80.13 C10.67 77.5 12.11 75.54 13.25 72.13 C14.24 71.64 14.24 71.64 15.25 71.13 C19.4 61.98 18.6 51.74 18.44 41.95 C18.42 40.31 18.41 38.67 18.4 37.04 C18.36 33.07 18.31 29.1 18.25 25.13 C18.91 24.8 19.57 24.47 20.25 24.13 C20.25 18.85 20.25 13.57 20.25 8.13 C19.59 8.13 18.93 8.13 18.25 8.13 C18.56 7.24 18.56 7.24 18.88 6.32 C19.56 3.85 19.56 3.85 17.25 1.13 C15.03 0.72 15.03 0.72 12.46 0.84 C11.05 0.85 11.05 0.85 9.61 0.87 C8.13 0.91 8.13 0.91 6.62 0.95 C5.63 0.96 4.64 0.97 3.62 0.99 C1.16 1.02 -1.29 1.07 -3.75 1.13 Z " fill="#4598AB" transform="translate(234.75,151.8671875)"/>
<path d="M0 0 C2.55 2.55 3.13 4.51 4 8 C3.69 10.69 3.69 10.69 3 14 C2.82 15.77 2.65 17.54 2.5 19.31 C1.97 25.42 1.39 31.51 0.44 37.56 C0.1 40.25 -0.01 42.57 0.06 45.25 C0 49 0 49 -2 52 C-2.66 51.67 -3.32 51.34 -4 51 C-2.88 54.73 -2.88 54.73 0 57 C0 57.99 0 58.98 0 60 C1.58 60.19 1.58 60.19 3.19 60.38 C6.46 60.91 9.01 61.64 12 63 C12 63.66 12 64.32 12 65 C14.97 64.5 14.97 64.5 18 64 C18 64.66 18 65.32 18 66 C19.65 66.66 21.3 67.32 23 68 C22.01 68.5 22.01 68.5 21 69 C21 69.66 21 70.32 21 71 C20.09 70.68 19.18 70.37 18.25 70.04 C12.94 68.52 7.54 68.54 2.06 68.38 C0.46 68.32 0.46 68.32 -1.17 68.26 C-3.78 68.16 -6.39 68.08 -9 68 C-8.16 56.72 -6.74 45.53 -5.24 34.32 C-4.97 32.32 -4.7 30.32 -4.44 28.31 C-4.31 27.33 -4.17 26.34 -4.04 25.32 C-3.21 19.02 -2.59 12.78 -2.31 6.43 C-1.99 3.89 -1.28 2.2 0 0 Z " fill="#213078" transform="translate(174,194)"/>
<path d="M0 0 C1.13 0.01 2.25 0.01 3.41 0.02 C4.63 0.02 5.84 0.02 7.09 0.03 C8.37 0.03 9.65 0.04 10.97 0.05 C12.25 0.06 13.54 0.06 14.86 0.06 C18.04 0.08 21.23 0.09 24.41 0.11 C25.69 2.68 25.53 4.51 25.52 7.39 C25.52 8.49 25.52 9.59 25.52 10.73 C25.52 11.92 25.51 13.11 25.51 14.34 C25.5 15.56 25.5 16.78 25.5 18.03 C25.5 21.93 25.48 25.84 25.47 29.74 C25.47 32.38 25.46 35.02 25.46 37.66 C25.45 44.14 25.43 50.63 25.41 57.11 C24.42 57.11 23.43 57.11 22.41 57.11 C22.41 56.45 22.41 55.79 22.41 55.11 C21.59 54.87 20.76 54.62 19.92 54.36 C15.85 52.91 12.12 51.08 8.28 49.11 C7.58 48.76 6.88 48.4 6.15 48.04 C4.85 47.37 3.54 46.71 2.24 46.04 C0.3 45.06 -1.65 44.09 -3.59 43.11 C-3.62 37.15 -3.63 31.19 -3.65 25.22 C-3.65 23.19 -3.66 21.16 -3.67 19.13 C-3.68 16.22 -3.69 13.31 -3.69 10.4 C-3.69 9.49 -3.7 8.57 -3.71 7.63 C-3.71 5.46 -3.65 3.29 -3.59 1.11 C-2.59 0.11 -2.59 0.11 0 0 Z M-1.59 3.11 C-1.59 15.32 -1.59 27.53 -1.59 40.11 C9.56 47.57 9.56 47.57 22.41 51.11 C22.43 44.76 22.45 38.41 22.46 32.05 C22.47 29.89 22.47 27.73 22.48 25.57 C22.5 22.46 22.5 19.36 22.51 16.25 C22.51 15.28 22.52 14.31 22.52 13.31 C22.52 12.41 22.52 11.51 22.52 10.58 C22.52 9.79 22.53 9 22.53 8.18 C22.49 5.92 22.49 5.92 21.41 3.11 C13.82 3.11 6.23 3.11 -1.59 3.11 Z " fill="#5B9DBA" transform="translate(194.592041015625,176.886474609375)"/>
<path d="M0 0 C-1.44 0.51 -2.87 1 -4.31 1.5 C-5.51 1.92 -5.51 1.92 -6.74 2.34 C-9 3 -9 3 -12 3 C-12 4.32 -12 5.64 -12 7 C-3.58 6.01 -3.58 6.01 5 5 C4.34 5.66 3.68 6.32 3 7 C1.68 7 0.36 7 -1 7 C-1 7.66 -1 8.32 -1 9 C-2.01 9.21 -3.01 9.42 -4.05 9.63 C-25.16 14.17 -45.57 22.04 -63 35 C-63.66 34.67 -64.32 34.34 -65 34 C-58.51 26.78 -51.01 21.38 -43 16 C-42.18 15.44 -41.36 14.89 -40.51 14.31 C-32.61 9.29 -8.42 -5.61 0 0 Z " fill="#29356C" transform="translate(321,256)"/>
<path d="M0 0 C3.68 5.52 4.38 10.15 4.69 16.62 C4.73 17.39 4.78 18.15 4.83 18.94 C5.01 22.27 5.06 24.81 4 28 C3.15 28.05 2.29 28.1 1.41 28.15 C0.31 28.22 -0.8 28.3 -1.94 28.38 C-3.04 28.44 -4.14 28.51 -5.28 28.59 C-6.18 28.72 -7.07 28.86 -8 29 C-8.33 29.66 -8.66 30.32 -9 31 C-11.29 31.41 -11.29 31.41 -14.06 31.62 C-14.98 31.7 -15.9 31.77 -16.85 31.85 C-17.91 31.93 -17.91 31.93 -19 32 C-18.01 31.34 -17.02 30.68 -16 30 C-20.62 30.66 -25.24 31.32 -30 32 C-30.33 31.01 -30.66 30.02 -31 29 C-29.6 26.19 -27.97 26.07 -25.06 25 C-21.17 23.59 -21.17 23.59 -18 21 C-15.84 20.59 -15.84 20.59 -13.38 20.38 C-12.56 20.3 -11.74 20.23 -10.9 20.15 C-10.27 20.1 -9.65 20.05 -9 20 C-9 20.66 -9 21.32 -9 22 C-7.02 21.67 -5.04 21.34 -3 21 C-3.01 20.2 -3.02 19.41 -3.04 18.59 C-3.15 4.73 -3.15 4.73 0 0 Z " fill="#213074" transform="translate(339,232)"/>
<path d="M0 0 C0.66 0.33 1.32 0.66 2 1 C2.49 3.17 2.49 3.17 2.82 6.03 C2.94 7.07 3.07 8.11 3.19 9.18 C3.32 10.28 3.44 11.37 3.56 12.5 C3.75 14.1 3.75 14.1 3.94 15.73 C4.31 18.82 4.66 21.91 5 25 C5.1 25.92 5.21 26.84 5.31 27.79 C5.54 29.86 5.77 31.93 6 34 C6.66 34 7.32 34 8 34 C9.78 37.04 10.21 39.05 9.98 42.55 C9.93 43.39 9.87 44.24 9.82 45.11 C9.76 45.98 9.69 46.85 9.62 47.75 C9.57 48.64 9.51 49.53 9.45 50.44 C9.31 52.63 9.16 54.81 9 57 C7.02 57.5 7.02 57.5 5 58 C4.34 57.01 3.68 56.02 3 55 C2.01 54.67 1.02 54.34 0 54 C0.19 53.39 0.38 52.78 0.58 52.16 C2.34 45.2 1.54 39.84 -0.4 33.08 C-1.96 27.54 -2.57 22.24 -2.82 16.48 C-2.84 14 -2.84 14 -4 12 C-4.35 8.96 -4.43 6.03 -4 3 C-2 0.94 -2 0.94 0 0 Z " fill="#213177" transform="translate(353,214)"/>
<path d="M0 0 C1.65 0.33 3.3 0.66 5 1 C4.8 2.19 4.59 3.37 4.38 4.59 C2.81 13.92 1.64 23.02 1.41 32.48 C0.95 36.46 -0.43 39.34 -2 43 C-2.55 45.78 -2.82 48.56 -3.06 51.38 C-3.29 53.95 -3.6 56.44 -4 59 C-4.99 59.5 -4.99 59.5 -6 60 C-6 59.01 -6 58.02 -6 57 C-6.99 57 -7.98 57 -9 57 C-9.33 49.41 -8.93 42.84 -6.86 35.53 C-5.51 30.01 -4.79 24.4 -4 18.77 C-3.83 17.52 -3.83 17.52 -3.65 16.25 C-3.55 15.5 -3.45 14.75 -3.34 13.99 C-3 12 -3 12 -2 9 C-1.84 7.82 -1.67 6.65 -1.5 5.44 C-1 2 -1 2 0 0 Z " fill="#213179" transform="translate(159,199)"/>
<path d="M0 0 C-3.75 3 -3.75 3 -6 3 C-6 3.66 -6 4.32 -6 5 C-6.33 5.33 -6.66 5.66 -7 6 C1.91 6 10.82 6 20 6 C20 6.33 20 6.66 20 7 C18.65 7.1 18.65 7.1 17.27 7.21 C-3.71 8.88 -23.94 10.51 -43.75 18.16 C-45.48 18.82 -47.24 19.42 -49 20 C-49.66 19.67 -50.32 19.34 -51 19 C-36.94 9.39 -17.66 -1.58 0 0 Z " fill="#2A366A" transform="translate(314,273)"/>
<path d="M0 0 C1.12 0 2.24 0.01 3.39 0.01 C4.56 0.02 5.72 0.03 6.93 0.04 C8.1 0.04 9.28 0.04 10.5 0.05 C13.41 0.06 16.32 0.08 19.24 0.1 C19.57 0.76 19.9 1.42 20.24 2.1 C19.91 2.76 19.58 3.42 19.24 4.1 C10.33 4.1 1.42 4.1 -7.76 4.1 C-8.09 32.81 -8.42 61.52 -8.76 91.1 C-9.42 91.1 -10.08 91.1 -10.76 91.1 C-10.81 79.95 -10.84 68.81 -10.87 57.67 C-10.88 52.49 -10.89 47.32 -10.91 42.14 C-10.93 37.15 -10.95 32.16 -10.95 27.16 C-10.96 25.26 -10.96 23.35 -10.97 21.45 C-10.99 18.78 -10.99 16.11 -10.99 13.45 C-11 12.26 -11 12.26 -11.01 11.05 C-10.98 4.02 -10.98 4.02 -8.76 1.1 C-5.58 0.04 -3.34 -0.02 0 0 Z " fill="#D5FBFD" transform="translate(272.76171875,121.90234375)"/>
<path d="M0 0 C-2 1.86 -4 3.71 -6 5.56 C-6.55 6.08 -7.11 6.59 -7.68 7.12 C-10.64 9.86 -13.63 12.55 -16.7 15.17 C-22.32 20.06 -27.51 25.4 -32.75 30.69 C-33.79 31.73 -34.83 32.77 -35.86 33.81 C-37.76 35.72 -39.66 37.63 -41.56 39.55 C-43.7 41.7 -45.85 43.85 -48 46 C-48.69 44.19 -48.69 44.19 -49 42 C-47.75 40.25 -47.75 40.25 -46 39 C-45.01 39 -44.02 39 -43 39 C-42.94 38.42 -42.88 37.84 -42.81 37.25 C-41.68 34.11 -39.62 32.98 -37 31 C-36.34 30.01 -35.68 29.02 -35 28 C-34.34 28 -33.68 28 -33 28 C-33 27.34 -33 26.68 -33 26 C-32.34 26 -31.68 26 -31 26 C-31 24.35 -31 22.7 -31 21 C-28.02 19.48 -25.18 18.06 -22 17 C-22 16.01 -22 15.02 -22 14 C-21.34 14 -20.68 14 -20 14 C-20.66 12.02 -21.32 10.04 -22 8 C-18.9 6.46 -15.8 4.95 -12.69 3.44 C-11.81 3 -10.93 2.56 -10.02 2.11 C-9.17 1.7 -8.32 1.29 -7.45 0.87 C-6.67 0.49 -5.89 0.11 -5.08 -0.29 C-3 -1 -3 -1 0 0 Z " fill="#2C3769" transform="translate(346,168)"/>
<path d="M0 0 C15.17 3.22 28.56 8.77 41 18 C41.5 18.99 41.5 18.99 42 20 C40.87 19.61 39.73 19.22 38.56 18.81 C25.47 14.49 12.63 11.1 -1 9 C-0.34 8.67 0.32 8.34 1 8 C1 7.34 1 6.68 1 6 C1.99 6 2.98 6 4 6 C4 5.34 4 4.68 4 4 C1.03 3.5 1.03 3.5 -2 3 C-1.34 2.67 -0.68 2.34 0 2 C0 1.34 0 0.68 0 0 Z " fill="#28346D" transform="translate(196,273)"/>
<path d="M0 0 C6.93 0 13.86 0 21 0 C21.66 1.65 22.32 3.3 23 5 C22.01 5.5 22.01 5.5 21 6 C20.67 4.68 20.34 3.36 20 2 C17.37 2.14 14.75 2.29 12.12 2.44 C11.01 2.5 11.01 2.5 9.86 2.56 C5.8 2.72 5.8 2.72 2 4 C1.85 10.93 1.71 17.86 1.57 24.79 C1.53 27.13 1.48 29.48 1.43 31.82 C1.26 39.88 1.11 47.94 1 56 C0.98 57.23 0.96 58.46 0.95 59.72 C0.9 63.35 0.87 66.97 0.84 70.6 C0.83 71.72 0.81 72.83 0.8 73.98 C0.79 75.01 0.79 76.03 0.79 77.09 C0.78 77.99 0.77 78.89 0.77 79.82 C0.79 82.21 0.79 82.21 3 84 C3.6 83.4 4.2 82.8 4.81 82.19 C5.9 81.1 5.9 81.1 7 80 C7.8 79.13 7.8 79.13 8.62 78.25 C10 77 10 77 12 77 C12 77.66 12 78.32 12 79 C11.01 79 10.02 79 9 79 C9 80.32 9 81.64 9 83 C7.51 83.5 7.51 83.5 6 84 C5.5 84.99 5.5 84.99 5 86 C3.35 86 1.7 86 0 86 C-1.21 82.37 -1.14 79.04 -1.13 75.26 C-1.13 74.47 -1.13 73.68 -1.13 72.87 C-1.14 70.27 -1.14 67.66 -1.13 65.06 C-1.13 63.25 -1.13 61.44 -1.14 59.64 C-1.14 55.85 -1.14 52.06 -1.13 48.28 C-1.12 43.42 -1.13 38.55 -1.13 33.69 C-1.14 29.96 -1.14 26.23 -1.13 22.5 C-1.13 20.71 -1.13 18.91 -1.14 17.12 C-1.14 14.62 -1.13 12.12 -1.13 9.61 C-1.13 8.87 -1.13 8.12 -1.14 7.36 C-1.11 2.23 -1.11 2.23 0 0 Z " fill="#2C9EB9" transform="translate(231,153)"/>
<path d="M0 0 C0.8 0 1.6 0.01 2.42 0.01 C3.22 0.01 4.01 0 4.84 0 C10.79 0.01 10.79 0.01 11.92 1.14 C12 2.77 12.02 4.41 12.02 6.05 C12.01 7.04 12.01 8.03 12.01 9.04 C12 10.09 11.99 11.13 11.98 12.2 C11.98 13.24 11.97 14.29 11.97 15.37 C11.95 17.96 11.94 20.55 11.92 23.14 C12.55 23.13 13.18 23.13 13.83 23.12 C16.67 23.1 19.51 23.09 22.36 23.07 C23.85 23.06 23.85 23.06 25.37 23.05 C26.78 23.04 26.78 23.04 28.23 23.04 C29.54 23.03 29.54 23.03 30.88 23.02 C32.92 23.14 32.92 23.14 33.92 24.14 C34.04 26.79 34.1 29.42 34.11 32.07 C34.12 32.82 34.13 33.56 34.14 34.32 C34.15 36.26 34.04 38.2 33.92 40.14 C31.92 42.14 31.92 42.14 29.85 42.36 C28.61 42.35 28.61 42.35 27.35 42.33 C26.45 42.33 25.56 42.32 24.63 42.31 C23.7 42.3 22.76 42.28 21.79 42.26 C20.85 42.25 19.9 42.24 18.93 42.23 C16.59 42.21 14.26 42.18 11.92 42.14 C12.25 41.48 12.58 40.82 12.92 40.14 C18.86 39.81 24.8 39.48 30.92 39.14 C30.92 34.85 30.92 30.56 30.92 26.14 C24.32 25.81 17.72 25.48 10.92 25.14 C10.92 24.48 10.92 23.82 10.92 23.14 C10.26 23.14 9.6 23.14 8.92 23.14 C8.89 19.99 8.87 16.85 8.86 13.7 C8.85 12.8 8.84 11.9 8.83 10.98 C8.83 10.12 8.82 9.27 8.82 8.39 C8.82 7.6 8.81 6.81 8.8 5.99 C8.92 4.14 8.92 4.14 9.92 3.14 C7.31 1.83 5.33 2 2.42 2.01 C1.44 2.01 0.46 2.01 -0.55 2 C-3.08 1.97 -3.08 1.97 -5.08 3.14 C-5.41 9.08 -5.74 15.02 -6.08 21.14 C-6.41 21.14 -6.74 21.14 -7.08 21.14 C-7.11 17.82 -7.13 14.51 -7.14 11.2 C-7.15 10.25 -7.16 9.31 -7.17 8.33 C-7.17 7.43 -7.18 6.54 -7.18 5.61 C-7.18 4.78 -7.19 3.94 -7.2 3.09 C-6.94 -1.24 -3.56 0.01 0 0 Z " fill="#1CA7A1" transform="translate(330.08203125,76.86328125)"/>
<path d="M0 0 C-0.03 0.78 -0.05 1.57 -0.08 2.38 C-0.83 26.25 -1.44 50.12 -2 74 C-1.01 74 -0.02 74 1 74 C1 73.34 1 72.68 1 72 C2.49 71.5 2.49 71.5 4 71 C4.33 71.66 4.66 72.32 5 73 C4.5 73.99 4.5 73.99 4 75 C3.01 75 2.02 75 1 75 C0.5 75.99 0.5 75.99 0 77 C-0.99 76.67 -1.98 76.34 -3 76 C-3.76 71.27 -4.12 66.75 -4.11 61.96 C-4.11 61.3 -4.11 60.63 -4.11 59.95 C-4.11 57.78 -4.11 55.61 -4.1 53.44 C-4.1 51.93 -4.09 50.41 -4.09 48.9 C-4.09 44.93 -4.08 40.96 -4.07 37 C-4.06 32.94 -4.05 28.89 -4.05 24.83 C-4.04 16.89 -4.02 8.94 -4 1 C-2 0 -2 0 0 0 Z " fill="#259EAD" transform="translate(269,128)"/>
<path d="M0 0 C0.33 0 0.66 0 1 0 C1.33 19.14 1.66 38.28 2 58 C2.33 54.37 2.66 50.74 3 47 C3.33 47 3.66 47 4 47 C4.37 59.67 4.37 59.67 2 65 C2.99 65 3.98 65 5 65 C4.67 63.68 4.34 62.36 4 61 C7.83 58.29 10.33 57.67 15 58 C15 58.66 15 59.32 15 60 C13.53 61.33 13.53 61.33 11.5 62.82 C10.78 63.36 10.06 63.89 9.31 64.44 C8.17 65.27 8.17 65.27 7 66.12 C5.86 66.97 5.86 66.97 4.69 67.83 C2.8 69.23 0.9 70.62 -1 72 C-1.33 71.34 -1.66 70.68 -2 70 C-1.5 69.01 -1.5 69.01 -1 68 C-4.46 68.5 -4.46 68.5 -8 69 C-8.33 69.99 -8.66 70.98 -9 72 C-11.48 72.5 -11.48 72.5 -14 73 C-13.34 72.32 -12.68 71.64 -12 70.94 C-11.55 70.47 -11.1 70 -10.63 69.52 C-9 68 -9 68 -6.99 66.68 C-3.44 64.19 -1.33 62.31 -0.26 58.02 C0.02 54.32 0.06 50.69 0 46.97 C0.01 45.62 0.02 44.26 0.03 42.9 C0.06 39.35 0.04 35.8 0.01 32.24 C-0.01 28.61 0.02 24.98 0.04 21.34 C0.07 14.23 0.05 7.11 0 0 Z " fill="#AFE4E8" transform="translate(292,128)"/>
<path d="M0 0 C1.1 0 1.1 0 2.22 0 C7.66 0.05 7.66 0.05 9.94 1.19 C9.94 18.02 9.94 34.85 9.94 52.19 C2.03 52.19 2.03 52.19 -2.94 49.31 C-3.88 48.78 -4.83 48.25 -5.8 47.7 C-8.06 46.19 -8.06 46.19 -9.06 44.19 C-12.53 42.7 -12.53 42.7 -16.06 41.19 C-16.06 28.98 -16.06 16.77 -16.06 4.19 C-15.73 4.19 -15.4 4.19 -15.06 4.19 C-14.73 15.74 -14.4 27.29 -14.06 39.19 C-3.4 45.29 -3.4 45.29 7.94 50.19 C7.94 34.35 7.94 18.51 7.94 2.19 C1.67 2.19 -4.6 2.19 -11.06 2.19 C-7.3 -0.32 -4.34 -0.07 0 0 Z " fill="#4BA0C7" transform="translate(208.0625,177.8125)"/>
<path d="M0 0 C0.99 0.33 1.98 0.66 3 1 C3 2.32 3 3.64 3 5 C2.34 5 1.68 5 1 5 C1 5.99 1 6.98 1 8 C-5.75 12 -5.75 12 -8 12 C-8 13.65 -8 15.3 -8 17 C-8.66 17 -9.32 17 -10 17 C-10 17.66 -10 18.32 -10 19 C-11.96 20.71 -13.96 22.38 -16 24 C-20.67 22.56 -20.67 22.56 -22.06 20.19 C-22 18 -22 18 -20.44 15.25 C-18 13 -18 13 -14.75 12.69 C-13.39 12.84 -13.39 12.84 -12 13 C-12 12.01 -12 11.02 -12 10 C-10.24 9.06 -8.48 8.11 -6.73 7.17 C-4.69 5.95 -4.69 5.95 -3 3 C-1.68 3 -0.36 3 1 3 C0.67 2.01 0.34 1.02 0 0 Z " fill="#213077" transform="translate(323,177)"/>
<path d="M0 0 C3.23 0.14 6.46 0.29 9.69 0.44 C11.06 0.5 11.06 0.5 12.45 0.56 C13.78 0.62 13.78 0.62 15.14 0.68 C16.35 0.74 16.35 0.74 17.6 0.79 C20.12 1.01 22.53 1.46 25 2 C25.33 2.99 25.66 3.98 26 5 C23.28 7.72 21.7 7.31 17.9 7.41 C16.69 7.45 15.47 7.49 14.23 7.53 C12.96 7.56 11.68 7.59 10.38 7.62 C9.1 7.66 7.82 7.7 6.5 7.74 C3.33 7.84 0.17 7.92 -3 8 C-3 6.68 -3 5.36 -3 4 C-2.34 3.67 -1.68 3.34 -1 3 C-0.67 2.01 -0.34 1.02 0 0 Z " fill="#EBEFFC" transform="translate(160,263)"/>
<path d="M0 0 C3 3 3 3 3.36 5.45 C3.35 6.42 3.34 7.4 3.33 8.4 C3.32 9.5 3.32 10.61 3.31 11.75 C3.29 12.95 3.27 14.14 3.25 15.38 C3.24 16.6 3.23 17.83 3.22 19.09 C3.06 32.73 2.56 46.37 2 60 C1.01 60.5 1.01 60.5 0 61 C0 40.87 0 20.74 0 0 Z " fill="#D7FBFD" transform="translate(293,126)"/>
<path d="M0 0 C0.33 0 0.66 0 1 0 C1.34 2.42 1.67 4.83 2 7.25 C2.14 8.27 2.14 8.27 2.29 9.32 C2.73 12.59 3 15.68 3 19 C7.29 19 11.58 19 16 19 C15.98 16.98 15.96 14.96 15.94 12.88 C15.89 8.44 16.16 4.35 17 0 C17.66 0 18.32 0 19 0 C19.09 3.46 19.14 6.92 19.19 10.38 C19.21 11.36 19.24 12.34 19.26 13.36 C19.27 14.3 19.28 15.24 19.29 16.21 C19.31 17.08 19.32 17.95 19.34 18.85 C19.23 19.56 19.12 20.27 19 21 C15.43 23.38 13.73 23.27 9.5 23.25 C8.36 23.26 7.21 23.26 6.03 23.27 C3 23 3 23 0 21 C-0.34 18.85 -0.34 18.85 -0.29 16.21 C-0.28 14.8 -0.28 14.8 -0.26 13.36 C-0.24 12.37 -0.21 11.39 -0.19 10.38 C-0.17 9.38 -0.16 8.39 -0.15 7.37 C-0.11 4.91 -0.06 2.46 0 0 Z " fill="#36A2A0" transform="translate(323,119)"/>
<path d="M0 0 C1.21 0.01 2.42 0.03 3.66 0.04 C4.92 0.07 6.19 0.11 7.49 0.14 C8.76 0.16 10.04 0.18 11.35 0.2 C14.5 0.24 17.65 0.31 20.8 0.39 C20.8 1.05 20.8 1.71 20.8 2.39 C12.22 2.72 3.64 3.05 -5.2 3.39 C-5.53 17.25 -5.86 31.11 -6.2 45.39 C-6.86 45.06 -7.52 44.73 -8.2 44.39 C-8.42 38.77 -8.61 33.14 -8.79 27.52 C-8.85 25.61 -8.92 23.69 -9 21.78 C-9.1 19.03 -9.19 16.28 -9.27 13.53 C-9.31 12.68 -9.35 11.82 -9.39 10.94 C-9.47 7.5 -9.48 5.03 -8.08 1.84 C-5.36 -0.26 -3.41 -0.06 0 0 Z " fill="#D1F5FD" transform="translate(197.19921875,174.609375)"/>
<path d="M0 0 C0.56 0.23 1.11 0.45 1.69 0.69 C2.02 2.01 2.35 3.33 2.69 4.69 C1.7 5.19 1.7 5.19 0.69 5.71 C-2.34 7.26 -5.36 8.82 -8.38 10.38 C-9.41 10.91 -10.45 11.44 -11.52 11.98 C-17.12 14.88 -22.31 17.86 -27.31 21.69 C-27.97 21.36 -28.63 21.03 -29.31 20.69 C-23.88 14.65 -8.67 -1.17 0 0 Z " fill="#2D3768" transform="translate(285.3125,269.3125)"/>
<path d="M0 0 C2 1 2 1 2.85 3.44 C4.35 9.5 5.23 14.78 5 21 C5.33 21.99 5.66 22.98 6 24 C5.72 26.01 5.4 28.01 5 30 C4.57 29.38 4.13 28.76 3.69 28.12 C2 25.78 2 25.78 -1 24 C-1.7 21.34 -1.78 18.76 -2 16 C-2.66 16.66 -3.32 17.32 -4 18 C-3.72 15.37 -3.43 12.75 -3.12 10.12 C-3.05 9.38 -2.97 8.63 -2.89 7.86 C-2.23 2.23 -2.23 2.23 0 0 Z " fill="#233277" transform="translate(335,200)"/>
<path d="M0 0 C0.66 0 1.32 0 2 0 C2.12 6.01 2.21 12.03 2.27 18.04 C2.3 20.09 2.33 22.13 2.38 24.18 C2.44 27.12 2.47 30.06 2.49 33.01 C2.51 33.92 2.54 34.83 2.57 35.76 C2.57 40.11 2.41 43.08 -0.34 46.56 C-3 49 -3 49 -6 50 C-5.67 49.01 -5.34 48.02 -5 47 C-4.34 47 -3.68 47 -3 47 C-0.61 37.29 -0.8 27.79 -0.94 17.88 C-0.97 15.46 -0.99 13.05 -1.01 10.64 C-1.02 9.15 -1.04 7.66 -1.06 6.17 C-1.08 4.44 -1.04 2.72 -1 1 C-0.67 0.67 -0.34 0.34 0 0 Z " fill="#319CB7" transform="translate(253,176)"/>
<path d="M0 0 C0.66 0 1.32 0 2 0 C2 2.31 2 4.62 2 7 C5.63 7 9.26 7 13 7 C13 6.34 13 5.68 13 5 C24.63 3.6 36.31 3.9 48 4 C48.5 4.99 48.5 4.99 49 6 C48.15 6.05 47.31 6.1 46.44 6.15 C43.24 6.34 40.04 6.54 36.84 6.74 C35.47 6.83 34.1 6.91 32.72 6.99 C24.88 7.46 17.21 8.13 9.49 9.59 C6.26 10.12 3.26 10.15 0 10 C-0.95 6.3 -0.95 3.7 0 0 Z " fill="#293566" transform="translate(143,275)"/>
<path d="M0 0 C0.33 0.66 0.66 1.32 1 2 C0.22 3.95 0.22 3.95 -0.94 6.12 C-1.32 6.85 -1.7 7.57 -2.09 8.32 C-2.39 8.87 -2.69 9.43 -3 10 C-2.34 10 -1.68 10 -1 10 C-1.66 11.98 -2.32 13.96 -3 16 C-3.66 15.67 -4.32 15.34 -5 15 C-5.43 15.93 -5.43 15.93 -5.88 16.88 C-7 19 -7 19 -9 21 C-9 21.99 -9 22.98 -9 24 C-9.93 24.12 -9.93 24.12 -10.88 24.25 C-13.16 24.8 -13.16 24.8 -14.12 26.94 C-14.41 27.62 -14.7 28.3 -15 29 C-15.66 29.66 -16.32 30.32 -17 31 C-17.99 30.67 -18.98 30.34 -20 30 C-13.64 19.76 -7.32 9.58 0 0 Z " fill="#E9EDF9" transform="translate(273,245)"/>
<path d="M0 0 C0.66 0 1.32 0 2 0 C2 1.65 2 3.3 2 5 C2.66 5.33 3.32 5.66 4 6 C3.67 6.33 3.34 6.66 3 7 C2.88 8.53 2.82 10.07 2.79 11.61 C2.77 12.59 2.75 13.57 2.73 14.58 C2.72 15.65 2.7 16.72 2.68 17.82 C2.66 18.9 2.64 19.99 2.62 21.11 C2.56 24.59 2.5 28.08 2.44 31.56 C2.39 33.92 2.35 36.27 2.31 38.63 C2.2 44.42 2.1 50.21 2 56 C1.34 56 0.68 56 0 56 C0 37.52 0 19.04 0 0 Z " fill="#D6F8FE" transform="translate(220,177)"/>
<path d="M0 0 C0.87 0.01 1.75 0.01 2.65 0.02 C3.59 0.02 4.54 0.02 5.51 0.03 C6.5 0.03 7.5 0.04 8.52 0.05 C9.52 0.06 10.52 0.06 11.54 0.06 C14.01 0.08 16.49 0.09 18.96 0.11 C18.96 0.44 18.96 0.77 18.96 1.11 C12.36 1.44 5.76 1.77 -1.04 2.11 C-1.04 6.4 -1.04 10.69 -1.04 15.11 C5.56 15.11 12.16 15.11 18.96 15.11 C18.96 16.43 18.96 17.75 18.96 19.11 C15.67 19.14 12.38 19.16 9.08 19.18 C8.15 19.18 7.21 19.19 6.24 19.2 C4.9 19.21 4.9 19.21 3.53 19.21 C2.29 19.22 2.29 19.22 1.02 19.23 C-1.04 19.11 -1.04 19.11 -3.04 18.11 C-3.07 15.3 -3.09 12.49 -3.1 9.68 C-3.11 8.87 -3.12 8.07 -3.13 7.24 C-3.14 5.2 -3.09 3.16 -3.04 1.11 C-2.04 0.11 -2.04 0.11 0 0 Z " fill="#3D9F9D" transform="translate(304.041259765625,99.886474609375)"/>
<path d="M0 0 C0.99 0.5 0.99 0.5 2 1 C2 2.98 2 4.96 2 7 C2.66 7 3.32 7 4 7 C4 8.32 4 9.64 4 11 C4.66 11.33 5.32 11.66 6 12 C5.67 12.99 5.34 13.98 5 15 C5.33 15.33 5.66 15.66 6 16 C6.38 18.98 6.71 21.95 7 24.94 C7.09 25.8 7.17 26.66 7.26 27.55 C7.51 30.03 7.76 32.52 8 35 C8.21 37.06 8.42 39.13 8.62 41.19 C8.75 42.45 8.87 43.7 9 45 C8.01 45.5 8.01 45.5 7 46 C6 40.41 5 34.83 4.01 29.24 C3.67 27.34 3.33 25.44 2.99 23.54 C2.5 20.81 2.01 18.07 1.53 15.34 C1.3 14.07 1.3 14.07 1.07 12.78 C0.31 8.46 -0.17 4.41 0 0 Z " fill="#E5EBFB" transform="translate(359,228)"/>
<path d="M0 0 C0 1.32 0 2.64 0 4 C0.86 3.76 0.86 3.76 1.73 3.51 C5.6 2.64 9.49 2.81 13.44 2.81 C14.33 2.81 15.21 2.81 16.13 2.81 C23.25 2.87 30.01 3.57 37 5 C34.23 7.77 32.58 7.26 28.71 7.27 C27.44 7.27 26.17 7.27 24.86 7.27 C24.19 7.27 23.53 7.27 22.84 7.26 C20.84 7.25 18.83 7.26 16.83 7.27 C15.55 7.27 14.27 7.27 12.96 7.27 C11.79 7.26 10.63 7.26 9.43 7.26 C5.02 6.93 0.97 5.98 -3 4 C-3 3.34 -3 2.68 -3 2 C-3.66 1.67 -4.32 1.34 -5 1 C-2 0 -2 0 0 0 Z " fill="#2F3A6A" transform="translate(156,267)"/>
<path d="M0 0 C5.75 1.75 5.75 1.75 8 4 C8.66 3.67 9.32 3.34 10 3 C12.36 3.94 14.7 4.93 17 6 C17.66 5.34 18.32 4.68 19 4 C19.33 4.66 19.66 5.32 20 6 C19 7.95 19 7.95 17.56 10.12 C17.09 10.85 16.62 11.57 16.13 12.32 C15.76 12.87 15.38 13.43 15 14 C10.95 12.39 8.24 9.5 5.25 6.44 C4.74 5.93 4.24 5.42 3.71 4.9 C0 1.14 0 1.14 0 0 Z " fill="#2A356F" transform="translate(229,277)"/>
<path d="M0 0 C0 0.66 0 1.32 0 2 C-0.66 2.66 -1.32 3.32 -2 4 C-0.8 3.87 -0.8 3.87 0.43 3.75 C10.4 2.85 20.03 3.27 30 4 C30 4.33 30 4.66 30 5 C29.27 5.02 28.54 5.04 27.79 5.06 C13.77 5.46 -0.11 5.98 -14 8 C-13.34 7.67 -12.68 7.34 -12 7 C-11.73 6.2 -11.46 5.39 -11.19 4.56 C-10 2 -10 2 -7.69 0.69 C-5 -0 -2.76 -0.16 0 0 Z " fill="#D9DEF3" transform="translate(319,265)"/>
<path d="M0 0 C0.33 0.66 0.66 1.32 1 2 C1.66 2 2.32 2 3 2 C3 1.34 3 0.68 3 0 C3.66 0 4.32 0 5 0 C5.66 1.32 6.32 2.64 7 4 C6.67 4.33 6.34 4.66 6 5 C5.8 8.34 5.65 11.67 5.57 15.01 C5.36 19.72 4.96 21.05 2 25 C2 18.73 2 12.46 2 6 C-3.48 5.55 -3.48 5.55 -6 7 C-5.49 4.83 -5 3 -4 1 C-1.94 0.38 -1.94 0.38 0 0 Z " fill="#E3E8F5" transform="translate(177,185)"/>
<path d="M0 0 C0.66 0 1.32 0 2 0 C3.02 5.52 4.04 11.03 5.05 16.55 C5.39 18.43 5.74 20.31 6.08 22.19 C6.58 24.88 7.08 27.58 7.57 30.27 C7.72 31.12 7.88 31.96 8.05 32.83 C9.11 38.77 9.11 38.77 8 41 C7.67 39.68 7.34 38.36 7 37 C6.34 37 5.68 37 5 37 C2.61 24.71 1.1 12.47 0 0 Z " fill="#303A68" transform="translate(354,211)"/>
<path d="M0 0 C0.66 0.33 1.32 0.66 2 1 C2 1.66 2 2.32 2 3 C1.44 3.06 0.89 3.12 0.31 3.19 C-2.27 3.91 -2.27 3.91 -4.5 6.5 C-6.87 8.87 -7.78 9.64 -11 10 C-11 10.99 -11 11.98 -11 13 C-14.75 14.12 -14.75 14.12 -17 13 C-17.33 13.99 -17.66 14.98 -18 16 C-18.66 16 -19.32 16 -20 16 C-20.33 17.65 -20.66 19.3 -21 21 C-22.32 21.33 -23.64 21.66 -25 22 C-25 21.34 -25 20.68 -25 20 C-25.66 19.67 -26.32 19.34 -27 19 C-20.29 13.66 -13.5 8.5 -6.31 3.81 C-5.71 3.41 -5.11 3.02 -4.5 2.61 C-3.04 1.67 -1.52 0.83 0 0 Z " fill="#293467" transform="translate(322,177)"/>
<path d="M0 0 C0.33 0 0.66 0 1 0 C1.01 0.72 1.02 1.43 1.03 2.17 C1.13 8.92 1.23 15.67 1.34 22.43 C1.39 25.9 1.45 29.37 1.5 32.84 C1.55 36.84 1.62 40.83 1.68 44.82 C1.7 46.07 1.72 47.31 1.73 48.59 C1.75 49.75 1.77 50.91 1.79 52.11 C1.81 53.13 1.83 54.15 1.84 55.2 C1.92 58 1.92 58 2.6 60.66 C3.19 64.1 1.7 66.07 0 69 C-0.99 69 -1.98 69 -3 69 C-2.34 68.01 -1.68 67.02 -1 66 C-0.67 63.03 -0.67 63.03 -0.68 59.6 C-0.67 58.96 -0.66 58.31 -0.65 57.65 C-0.62 55.52 -0.6 53.4 -0.59 51.27 C-0.57 49.79 -0.55 48.32 -0.53 46.84 C-0.48 42.96 -0.44 39.08 -0.4 35.2 C-0.36 31.24 -0.31 27.28 -0.26 23.31 C-0.16 15.54 -0.08 7.77 0 0 Z " fill="#C4FAFF" transform="translate(256,155)"/>
<path d="M0 0 C1.35 0.63 2.68 1.3 4 2 C5.98 1.73 5.98 1.73 8 1 C9.67 0.66 11.33 0.32 13 0 C13 0.66 13 1.32 13 2 C11.84 2.47 10.68 2.94 9.49 3.43 C7.95 4.05 6.41 4.68 4.88 5.31 C4.11 5.62 3.35 5.93 2.57 6.25 C-1.72 8 -5.89 9.86 -10 12 C-9.43 9.13 -9.14 8.14 -7 6 C-5.68 6 -4.36 6 -3 6 C-5.48 5.01 -5.48 5.01 -8 4 C-7.67 3.34 -7.34 2.68 -7 2 C-6.01 2 -5.02 2 -4 2 C-3.36 1.63 -2.72 1.26 -2.06 0.88 C-1.38 0.59 -0.7 0.3 0 0 Z " fill="#EAECF4" transform="translate(296,256)"/>
<path d="M0 0 C-4.22 2.81 -8.77 4.09 -13.56 5.69 C-14.53 6.02 -15.51 6.35 -16.51 6.7 C-17.43 7.01 -18.36 7.32 -19.32 7.64 C-20.17 7.92 -21.02 8.21 -21.89 8.5 C-24 9 -24 9 -26 8 C-23.28 6.24 -20.56 4.49 -17.81 2.77 C-15.82 1.51 -13.84 0.23 -11.88 -1.06 C-7.62 -2.45 -4.19 -1.29 0 0 Z " fill="#2C365D" transform="translate(289,284)"/>
<path d="M0 0 C0.99 0 0.99 0 1.99 0 C4.07 0.01 6.15 0.02 8.23 0.04 C9.64 0.04 11.06 0.04 12.48 0.05 C15.94 0.06 19.39 0.08 22.85 0.1 C22.85 0.76 22.85 1.42 22.85 2.1 C10.64 2.43 -1.57 2.76 -14.15 3.1 C-13.82 2.44 -13.49 1.78 -13.15 1.1 C-8.76 0.06 -4.5 -0.02 0 0 Z " fill="#2A3463" transform="translate(329.1484375,269.90234375)"/>
<path d="M0 0 C0.66 0.33 1.32 0.66 2 1 C1.67 1.33 1.34 1.66 1 2 C0.97 5.8 1.03 9.59 1.13 13.39 C1.14 14.18 1.15 14.98 1.16 15.8 C1.18 16.54 1.19 17.27 1.21 18.02 C1 20 1 20 -1 23 C-3.15 23.34 -3.15 23.34 -5.79 23.29 C-6.73 23.28 -7.67 23.27 -8.64 23.26 C-10.12 23.23 -10.12 23.23 -11.62 23.19 C-13.11 23.17 -13.11 23.17 -14.63 23.15 C-17.09 23.11 -19.54 23.06 -22 23 C-21.9 23.69 -21.81 24.37 -21.71 25.08 C-21.6 25.98 -21.49 26.88 -21.38 27.81 C-21.26 28.71 -21.14 29.6 -21.02 30.52 C-21 33 -21 33 -23 36 C-24 35 -24 35 -24.13 32.57 C-24.13 31.58 -24.13 30.58 -24.12 29.56 C-24.13 28.57 -24.13 27.59 -24.13 26.57 C-24 24 -24 24 -23 22 C-16.07 22 -9.14 22 -2 22 C-1.08 19.23 -0.89 17.66 -0.94 14.8 C-0.95 14.01 -0.95 13.21 -0.96 12.39 C-0.97 11.56 -0.99 10.73 -1 9.88 C-1.05 6.91 -1.05 3.97 -1 1 C-0.67 0.67 -0.34 0.34 0 0 Z " fill="#11A9A5" transform="translate(326,80)"/>
<path d="M0 0 C1.32 0.33 2.64 0.66 4 1 C3.6 1.54 3.19 2.09 2.78 2.65 C0.93 5.14 -0.91 7.63 -2.75 10.12 C-3.7 11.41 -3.7 11.41 -4.67 12.72 C-7.89 17.08 -11.05 21.45 -14 26 C-15 23 -15 23 -14 20 C-13.34 20 -12.68 20 -12 20 C-12.1 19.28 -12.21 18.56 -12.31 17.81 C-11.87 13.84 -10 12.5 -7 10 C-6.34 10 -5.68 10 -5 10 C-4.73 9.07 -4.46 8.14 -4.19 7.19 C-3.08 4.2 -2.33 3.02 0 1 C0 0.67 0 0.34 0 0 Z " fill="#293364" transform="translate(276,236)"/>
<path d="M0 0 C1.32 0.66 2.64 1.32 4 2 C3.46 2.28 2.92 2.55 2.37 2.84 C-0.11 4.12 -2.59 5.4 -5.06 6.69 C-5.91 7.12 -6.76 7.56 -7.63 8.01 C-12.74 10.67 -17.4 13.53 -22 17 C-22.66 16.67 -23.32 16.34 -24 16 C-21.07 11.72 -18.93 10.42 -14 9 C-13.67 8.34 -13.34 7.68 -13 7 C-12.34 7.33 -11.68 7.66 -11 8 C-11 7.34 -11 6.68 -11 6 C-10.01 5.67 -9.02 5.34 -8 5 C-7.67 4.34 -7.34 3.68 -7 3 C-5 2.67 -3 2.33 -1 2 C-0.67 1.34 -0.34 0.68 0 0 Z " fill="#E5EAFA" transform="translate(332,169)"/>
<path d="M0 0 C-1.25 3.75 -2.46 4.17 -5.81 6.12 C-6.69 6.64 -7.56 7.16 -8.46 7.7 C-10.69 8.84 -12.55 9.53 -15 10 C-15 9.34 -15 8.68 -15 8 C-15.66 7.67 -16.32 7.34 -17 7 C-4.15 -2.08 -4.15 -2.08 0 0 Z " fill="#E6ECF9" transform="translate(275,283)"/>
<path d="M0 0 C0.33 0 0.66 0 1 0 C1 6.27 1 12.54 1 19 C-7.31 19.44 -7.31 19.44 -9.92 19.57 C-10.6 19.61 -11.28 19.64 -11.99 19.68 C-13.03 19.74 -13.03 19.74 -14.1 19.79 C-16.22 19.96 -16.22 19.96 -19 21 C-19.66 20.34 -20.32 19.68 -21 19 C-20.34 19 -19.68 19 -19 19 C-19 18.34 -19 17.68 -19 17 C-17.95 16.94 -16.9 16.88 -15.82 16.82 C-14.45 16.73 -13.07 16.65 -11.69 16.56 C-11 16.52 -10.31 16.48 -9.6 16.44 C-6.53 16.25 -3.93 15.98 -1 15 C-0.67 10.05 -0.34 5.1 0 0 Z " fill="#E2F9FB" transform="translate(320,80)"/>
<path d="M0 0 C2.06 0.44 2.06 0.44 4 1 C3.34 1.66 2.68 2.32 2 3 C2.33 3.33 2.66 3.66 3 4 C3.09 5.42 3.11 6.84 3.1 8.25 C3.09 9.11 3.09 9.96 3.09 10.84 C3.08 11.74 3.07 12.64 3.06 13.56 C3.06 14.46 3.05 15.37 3.05 16.29 C3.04 18.53 3.02 20.76 3 23 C2.34 23.33 1.68 23.66 1 24 C0.66 21.48 0.33 18.96 0 16.44 C-0.1 15.73 -0.19 15.03 -0.29 14.3 C-0.86 9.84 -1.19 5.51 -1 1 C-0.67 0.67 -0.34 0.34 0 0 Z " fill="#2A3364" transform="translate(330,190)"/>
<path d="M0 0 C1.81 0.01 1.81 0.01 3.65 0.01 C6.6 0.03 9.55 0.04 12.5 0.06 C12.5 0.72 12.5 1.38 12.5 2.06 C11.62 2.05 10.73 2.04 9.82 2.03 C-3 1.68 -3 1.68 -15.5 4.06 C-18.69 3.12 -18.69 3.12 -21.5 2.06 C-21.5 1.73 -21.5 1.4 -21.5 1.06 C-14.32 -0.07 -7.26 -0.05 0 0 Z " fill="#E8EEFB" transform="translate(322.5,280.9375)"/>
<path d="M0 0 C4.71 0.48 8.67 0.97 13 3 C12.01 4.49 12.01 4.49 11 6 C11 6.99 11 7.98 11 9 C6.77 7.69 2.93 6.06 -1 4 C-0.67 2.68 -0.34 1.36 0 0 Z " fill="#E6ECF3" transform="translate(199,228)"/>
<path d="M0 0 C0.8 0 1.6 0.01 2.42 0.01 C3.22 0.01 4.01 0 4.84 0 C10.79 0.01 10.79 0.01 11.92 1.14 C12 2.63 12.03 4.12 12.02 5.61 C12.01 6.51 12.01 7.41 12.01 8.33 C12 9.28 11.99 10.23 11.98 11.2 C11.98 12.15 11.97 13.1 11.97 14.08 C11.95 16.43 11.94 18.78 11.92 21.14 C11.59 21.14 11.26 21.14 10.92 21.14 C10.59 15.2 10.26 9.26 9.92 3.14 C7.31 1.83 5.33 2 2.42 2.01 C1.44 2.01 0.46 2.01 -0.55 2 C-3.08 1.97 -3.08 1.97 -5.08 3.14 C-5.41 9.08 -5.74 15.02 -6.08 21.14 C-6.41 21.14 -6.74 21.14 -7.08 21.14 C-7.11 17.82 -7.13 14.51 -7.14 11.2 C-7.15 10.25 -7.16 9.31 -7.17 8.33 C-7.17 7.43 -7.18 6.54 -7.18 5.61 C-7.18 4.78 -7.19 3.94 -7.2 3.09 C-6.94 -1.24 -3.56 0.01 0 0 Z " fill="#399895" transform="translate(330.08203125,76.86328125)"/>
<path d="M0 0 C-0.33 0.99 -0.66 1.98 -1 3 C-2.26 3.06 -3.53 3.12 -4.83 3.18 C-6.49 3.27 -8.15 3.35 -9.81 3.44 C-10.65 3.48 -11.48 3.52 -12.34 3.56 C-13.14 3.6 -13.94 3.64 -14.77 3.68 C-15.88 3.74 -15.88 3.74 -17.01 3.79 C-19.21 3.95 -19.21 3.95 -22 5 C-22.33 9.29 -22.66 13.58 -23 18 C-23.33 18 -23.66 18 -24 18 C-24.18 7.44 -24.18 7.44 -23 3 C-22.01 3 -21.02 3 -20 3 C-20 2.34 -20 1.68 -20 1 C-13.3 0.2 -6.74 -0.13 0 0 Z " fill="#16A6A3" transform="translate(362,114)"/>
<path d="M0 0 C6.31 3.32 12.31 6.7 18 11 C16 12 16 12 12.3 10.79 C10.83 10.22 9.35 9.64 7.88 9.06 C7.12 8.77 6.37 8.48 5.59 8.18 C3.72 7.46 1.86 6.73 0 6 C0 4 0 2 0 0 Z " fill="#343B59" transform="translate(220,281)"/>
<path d="M0 0 C0.33 0 0.66 0 1 0 C1 18.15 1 36.3 1 55 C0.01 55 -0.98 55 -2 55 C-2 54.01 -2 53.02 -2 52 C-1.34 52 -0.68 52 0 52 C0 34.84 0 17.68 0 0 Z " fill="#70AAC2" transform="translate(219,179)"/>
<path d="M0 0 C5.61 0 11.22 0 17 0 C17 0.66 17 1.32 17 2 C17.99 2 18.98 2 20 2 C21.52 5.03 21.18 8.18 21.19 11.5 C21.2 12.19 21.21 12.88 21.22 13.59 C21.23 15.39 21.12 17.2 21 19 C20.34 19.66 19.68 20.32 19 21 C18.97 19.88 18.95 18.76 18.92 17.61 C18.87 16.13 18.81 14.66 18.75 13.19 C18.74 12.45 18.72 11.71 18.71 10.95 C18.56 7.77 18.45 5.56 16.41 3.03 C13.15 1.64 10.28 1.48 6.75 1.31 C4.86 1.21 4.86 1.21 2.92 1.11 C1.96 1.08 0.99 1.04 0 1 C0 0.67 0 0.34 0 0 Z " fill="#DBFBFB" transform="translate(346,97)"/>
<path d="M0 0 C-6.44 5.94 -6.44 5.94 -13 12 C-13.33 11.01 -13.66 10.02 -14 9 C-13.67 8.34 -13.34 7.68 -13 7 C-13.66 6.67 -14.32 6.34 -15 6 C-10.76 2.28 -5.78 -1.93 0 0 Z " fill="#33385B" transform="translate(346,168)"/>
<path d="M0 0 C0.84 0.43 0.84 0.43 1.69 0.88 C4.01 2.08 4.01 2.08 6.69 2.81 C7.83 3.4 7.83 3.4 9 4 C9.81 6.62 9.81 6.62 10 9 C6.23 10.26 4.63 9.37 1 8 C1 6.68 1 5.36 1 4 C0.01 3.67 -0.98 3.34 -2 3 C-1.34 2.01 -0.68 1.02 0 0 Z " fill="#EFF3FA" transform="translate(200,253)"/>
<path d="M0 0 C3.54 1.68 4.79 2.49 6.31 6.19 C6.65 7.58 6.65 7.58 7 9 C-0.51 9.37 -0.51 9.37 -3 7.5 C-3.33 7 -3.66 6.51 -4 6 C-2.68 5.34 -1.36 4.68 0 4 C-0.33 3.01 -0.66 2.02 -1 1 C-0.67 0.67 -0.34 0.34 0 0 Z " fill="#EDF2FA" transform="translate(224,274)"/>
<path d="M0 0 C2.65 3.98 2.03 7.18 1.69 11.75 C1.64 12.54 1.59 13.32 1.54 14.13 C1.23 18.8 0.72 23.38 0 28 C-0.99 27.67 -1.98 27.34 -3 27 C-2.01 18.09 -1.02 9.18 0 0 Z " fill="#36416A" transform="translate(166,229)"/>
<path d="M0 0 C-1.09 1.99 -1.09 1.99 -3 4 C-6.07 4.36 -6.07 4.36 -9.56 4.19 C-13.94 3.81 -13.94 3.81 -18 5 C-18 4.34 -18 3.68 -18 3 C-19.32 2.67 -20.64 2.34 -22 2 C-19.08 1.47 -16.17 0.95 -13.25 0.44 C-12.43 0.29 -11.6 0.13 -10.75 -0.02 C-9.95 -0.16 -9.15 -0.3 -8.33 -0.44 C-7.59 -0.57 -6.86 -0.7 -6.11 -0.84 C-3.84 -1.01 -2.16 -0.67 0 0 Z " fill="#DEE3F4" transform="translate(166,283)"/>
<path d="M0 0 C1.65 0 3.3 0 5 0 C5 0.99 5 1.98 5 3 C4.67 3.33 4.34 3.66 4 4 C4.66 4.33 5.32 4.66 6 5 C6.73 6.98 7.4 8.98 8 11 C5.03 10.67 2.06 10.34 -1 10 C-1.33 9.01 -1.66 8.02 -2 7 C-1.01 6.34 -0.02 5.68 1 5 C0.67 3.35 0.34 1.7 0 0 Z " fill="#F5F4F9" transform="translate(188,243)"/>
<path d="M0 0 C0.66 0 1.32 0 2 0 C2.33 1.32 2.66 2.64 3 4 C0.56 4.67 -1.87 5.34 -4.31 6 C-5 6.19 -5.69 6.38 -6.4 6.58 C-9.36 7.38 -11.93 8 -15 8 C-14.67 6.35 -14.34 4.7 -14 3 C-13.01 3 -12.02 3 -11 3 C-11 2.34 -11 1.68 -11 1 C-10.34 1.33 -9.68 1.66 -9 2 C-9.33 2.66 -9.66 3.32 -10 4 C-9.34 4 -8.68 4 -8 4 C-8 3.34 -8 2.68 -8 2 C-5.36 2 -2.72 2 0 2 C0 1.34 0 0.68 0 0 Z " fill="#E4E9F6" transform="translate(327,248)"/>
<path d="M0 0 C5.48 1.55 10.11 4.16 15 7 C13 10 13 10 10 11 C9.34 11.66 8.68 12.32 8 13 C7.67 11.35 7.34 9.7 7 8 C7.66 7.67 8.32 7.34 9 7 C6.03 6.01 3.06 5.02 0 4 C0 2.68 0 1.36 0 0 Z " fill="#D6F4FB" transform="translate(202,225)"/>
<path d="M0 0 C0.99 0 1.98 0 3 0 C5.48 11.52 5.48 11.52 4 17 C2.35 17 0.7 17 -1 17 C0.32 16.67 1.64 16.34 3 16 C2.52 14.94 2.52 14.94 2.04 13.86 C0.95 10.87 0.6 8.35 0.38 5.19 C0.3 4.21 0.23 3.24 0.15 2.23 C0.1 1.49 0.05 0.76 0 0 Z " fill="#333B69" transform="translate(363,268)"/>
<path d="M0 0 C0 0.99 0 1.98 0 3 C-7.92 3 -15.84 3 -24 3 C-24 2.34 -24 1.68 -24 1 C-20.38 0.83 -16.75 0.67 -13.12 0.5 C-12.09 0.45 -11.06 0.4 -10 0.36 C-9.01 0.31 -8.02 0.27 -7.01 0.22 C-6.1 0.18 -5.19 0.13 -4.25 0.09 C-2.83 0.03 -1.42 0 0 0 Z " fill="#C4F7FC" transform="translate(291,123)"/>
<path d="M0 0 C6.23 1.59 12.16 3.28 18 6 C16 8 16 8 13.62 8.2 C12.71 8.17 11.81 8.15 10.88 8.12 C9.51 8.1 9.51 8.1 8.12 8.07 C7.42 8.05 6.72 8.02 6 8 C6.33 6.35 6.66 4.7 7 3 C4.69 2.67 2.38 2.34 0 2 C0 1.34 0 0.68 0 0 Z " fill="#E4E7F5" transform="translate(218,286)"/>
<path d="M0 0 C0.66 0 1.32 0 2 0 C1.12 4.88 1.12 4.88 0 6 C-1.49 6.09 -2.98 6.11 -4.47 6.1 C-5.37 6.09 -6.27 6.09 -7.2 6.09 C-8.14 6.08 -9.09 6.07 -10.06 6.06 C-11.01 6.06 -11.96 6.05 -12.94 6.05 C-15.29 6.04 -17.65 6.02 -20 6 C-19.67 5.34 -19.34 4.68 -19 4 C-13.06 3.67 -7.12 3.34 -1 3 C-0.67 2.01 -0.34 1.02 0 0 Z " fill="#3DA29E" transform="translate(362,113)"/>
<path d="M0 0 C4.23 0.56 6.86 1.98 10.31 4.44 C11.2 5.05 12.08 5.67 12.99 6.31 C13.65 6.87 14.32 7.42 15 8 C15 8.66 15 9.32 15 10 C14.28 9.69 13.56 9.38 12.81 9.06 C10.2 8.07 7.75 7.47 5 7 C4.67 6.01 4.34 5.02 4 4 C2 2.79 2 2.79 0 2 C0 1.34 0 0.68 0 0 Z " fill="#283265" transform="translate(212,240)"/>
<path d="M0 0 C1.32 0 2.64 0 4 0 C4.33 0.99 4.66 1.98 5 3 C6.86 4.38 6.86 4.38 9.06 5.56 C11.29 6.82 11.29 6.82 13 8 C13 8.66 13 9.32 13 10 C13.99 10.33 14.98 10.66 16 11 C15.67 12.32 15.34 13.64 15 15 C14.59 14.58 14.18 14.15 13.75 13.71 C9.83 9.73 5.77 6 1.5 2.38 C1.01 1.93 0.51 1.47 0 1 C0 0.67 0 0.34 0 0 Z " fill="#313A69" transform="translate(189,239)"/>
<path d="M0 0 C5.78 3.32 5.78 3.32 6.88 6.75 C6.94 7.86 6.94 7.86 7 9 C3.89 9 1.06 8.54 -2 8 C-2.69 5.69 -2.69 5.69 -3 3 C-1.56 1.19 -1.56 1.19 0 0 Z " fill="#EDEDEC" transform="translate(333,182)"/>
<path d="M0 0 C5.44 0.99 5.44 0.99 11 2 C11 2.33 11 2.66 11 3 C9.02 3.33 7.04 3.66 5 4 C5.99 5.49 5.99 5.49 7 7 C3.04 6.67 -0.92 6.34 -5 6 C-3.68 4.68 -2.36 3.36 -1 2 C-0.67 1.34 -0.34 0.68 0 0 Z " fill="#DFE3F6" transform="translate(185,265)"/>
<path d="M0 0 C0 0.66 0 1.32 0 2 C-2.19 3.73 -2.19 3.73 -5 5.62 C-5.93 6.26 -6.86 6.89 -7.81 7.54 C-8.53 8.02 -9.26 8.5 -10 9 C-10.99 8.34 -11.98 7.68 -13 7 C-12.01 7 -11.02 7 -10 7 C-10.33 5.68 -10.66 4.36 -11 3 C-7.17 0.29 -4.67 -0.33 0 0 Z " fill="#E3E7F6" transform="translate(307,186)"/>
<path d="M0 0 C5.94 0 11.88 0 18 0 C18 0.33 18 0.66 18 1 C17.01 1.04 16.03 1.07 15.01 1.11 C13.73 1.18 12.45 1.24 11.12 1.31 C9.85 1.37 8.57 1.43 7.26 1.49 C6.18 1.66 5.11 1.83 4 2 C1.6 5.6 1.56 8.51 1.38 12.69 C1.34 13.39 1.3 14.09 1.26 14.81 C1.16 16.54 1.08 18.27 1 20 C0.67 20 0.34 20 0 20 C0 13.4 0 6.8 0 0 Z " fill="#B9FDFD" transform="translate(342,119)"/>
<path d="M0 0 C2.63 0.09 5.25 0.19 7.88 0.31 C8.62 0.34 9.37 0.36 10.14 0.38 C12.1 0.48 14.05 0.73 16 1 C16.66 1.99 17.32 2.98 18 4 C15.37 3.91 12.75 3.81 10.12 3.69 C9.38 3.66 8.63 3.64 7.86 3.62 C5.9 3.52 3.95 3.27 2 3 C1.34 2.01 0.68 1.02 0 0 Z " fill="#EEF2FE" transform="translate(336,281)"/>
<path d="M0 0 C0.66 0.66 1.32 1.32 2 2 C1.34 2 0.68 2 0 2 C0 3.32 0 4.64 0 6 C-2.08 7.7 -2.08 7.7 -4.81 9.25 C-5.71 9.77 -6.6 10.29 -7.52 10.83 C-10 12 -10 12 -13 12 C-4.74 3.55 -4.74 3.55 0 0 Z " fill="#3A4156" transform="translate(269,278)"/>
<path d="M0 0 C7.92 3.96 7.92 3.96 16 8 C14.02 8.99 14.02 8.99 12 10 C11.01 9.67 10.02 9.34 9 9 C9 8.01 9 7.02 9 6 C7.61 5.85 7.61 5.85 6.19 5.69 C2.98 4.99 1.88 4.61 0 2 C0 1.34 0 0.68 0 0 Z " fill="#263163" transform="translate(191,228)"/>
<path d="M0 0 C0.33 1.32 0.66 2.64 1 4 C-0.14 4.62 -0.14 4.62 -1.31 5.25 C-4.06 6.8 -4.06 6.8 -5.5 9.12 C-7 11 -7 11 -9.69 11.75 C-10.45 11.83 -11.21 11.91 -12 12 C-8.32 7.47 -4.59 3.61 0 0 Z " fill="#CAF3F6" transform="translate(277,201)"/>
<path d="M0 0 C0.87 0.68 1.73 1.36 2.62 2.06 C5.84 4.33 5.84 4.33 9.38 3.75 C10.24 3.5 11.11 3.25 12 3 C12 3.66 12 4.32 12 5 C8.65 7.24 8.09 7.17 4.31 6.62 C3.1 6.46 3.1 6.46 1.86 6.29 C0.94 6.15 0.94 6.15 0 6 C-0.33 5.01 -0.66 4.02 -1 3 C-1.66 2.67 -2.32 2.34 -3 2 C-2.01 2 -1.02 2 0 2 C0 1.34 0 0.68 0 0 Z " fill="#2C3769" transform="translate(228,249)"/>
<path d="M0 0 C0.33 1.32 0.66 2.64 1 4 C-3.52 5.37 -6.59 4.47 -11 3 C-10.01 2.67 -9.02 2.34 -8 2 C-8 1.34 -8 0.68 -8 0 C-4.71 -1.1 -3.29 -0.8 0 0 Z " fill="#273164" transform="translate(220,281)"/>
<path d="M0 0 C0.66 0.33 1.32 0.66 2 1 C1.29 1.62 1.29 1.62 0.56 2.25 C-1.16 4.18 -1.57 5.48 -2 8 C-3.65 8 -5.3 8 -7 8 C-7.33 8.99 -7.66 9.98 -8 11 C-9.65 11.33 -11.3 11.66 -13 12 C-8.88 7.75 -4.49 3.86 0 0 Z " fill="#C4F5F7" transform="translate(291,189)"/>
<path d="M0 0 C0.33 0 0.66 0 1 0 C1.37 3.39 1.72 6.79 2.06 10.19 C2.17 11.15 2.27 12.11 2.38 13.1 C2.47 14.03 2.56 14.96 2.66 15.92 C2.79 17.2 2.79 17.2 2.93 18.5 C3 21.16 2.61 23.43 2 26 C1.67 26 1.34 26 1 26 C0.14 20.12 -0.13 14.44 -0.06 8.5 C-0.06 7.68 -0.05 6.86 -0.05 6.01 C-0.04 4.01 -0.02 2 0 0 Z " fill="#394271" transform="translate(343,231)"/>
<path d="M0 0 C0.33 0.66 0.66 1.32 1 2 C-0.27 4.04 -1.61 6.04 -3 8 C-3.66 8 -4.32 8 -5 8 C-4.67 9.32 -4.34 10.64 -4 12 C-6.97 13.98 -6.97 13.98 -10 16 C-10.33 15.34 -10.66 14.68 -11 14 C-10.46 13.32 -9.91 12.65 -9.36 11.95 C-8.64 11.06 -7.92 10.17 -7.19 9.25 C-6.13 7.93 -6.13 7.93 -5.04 6.58 C-3.32 4.41 -1.65 2.22 0 0 Z " fill="#EAEDF9" transform="translate(295,217)"/>
<path d="M0 0 C0.33 0.99 0.66 1.98 1 3 C0.01 3.33 -0.98 3.66 -2 4 C-2 4.99 -2 5.98 -2 7 C-4.97 7.66 -7.94 8.32 -11 9 C-3.8 0 -3.8 0 0 0 Z " fill="#293465" transform="translate(295,197)"/>
<path d="M0 0 C2.12 0.38 2.12 0.38 4 1 C3.01 2.32 2.02 3.64 1 5 C1.99 5.99 2.98 6.98 4 8 C3.67 8.66 3.34 9.32 3 10 C-0.88 9.12 -0.88 9.12 -2 8 C-2.19 5.06 -2.19 5.06 -2 2 C-1.34 1.34 -0.68 0.68 0 0 Z " fill="#2A3661" transform="translate(186,228)"/>
<path d="M0 0 C0.66 0 1.32 0 2 0 C2.66 1.65 3.32 3.3 4 5 C4.33 4.01 4.66 3.02 5 2 C5.08 6.16 4.98 9.95 4 14 C3.34 13.01 2.68 12.02 2 11 C1.01 11.5 1.01 11.5 0 12 C0 8.04 0 4.08 0 0 Z " fill="#D9E0F3" transform="translate(165,194)"/>
<path d="M0 0 C0.33 0.66 0.66 1.32 1 2 C0.22 3.95 0.22 3.95 -0.94 6.12 C-1.32 6.85 -1.7 7.57 -2.09 8.32 C-2.54 9.15 -2.54 9.15 -3 10 C-2.34 10 -1.68 10 -1 10 C-1.66 11.98 -2.32 13.96 -3 16 C-3.66 15.67 -4.32 15.34 -5 15 C-5 14.01 -5 13.02 -5 12 C-5.99 12.33 -6.98 12.66 -8 13 C-6.41 7.91 -3.26 4.13 0 0 Z " fill="#E0E5F1" transform="translate(273,245)"/>
<path d="M0 0 C0.33 0 0.66 0 1 0 C1.22 2.96 1.43 5.92 1.62 8.88 C1.69 9.72 1.75 10.56 1.82 11.43 C1.87 12.23 1.92 13.04 1.98 13.87 C2.03 14.61 2.08 15.35 2.14 16.12 C2 18 2 18 0 20 C-2.71 14.58 -1.27 5.74 0 0 Z " fill="#DDE4F5" transform="translate(330,206)"/>
<path d="M0 0 C0 0.99 0 1.98 0 3 C-2.23 3.03 -4.46 3.05 -6.69 3.06 C-7.93 3.07 -9.17 3.09 -10.45 3.1 C-13.46 3.01 -16.08 2.71 -19 2 C-19 1.67 -19 1.34 -19 1 C-16.4 0.83 -13.79 0.67 -11.19 0.5 C-10.08 0.43 -10.08 0.43 -8.95 0.36 C-5.96 0.17 -3 0 0 0 Z " fill="#1CA29D" transform="translate(323,115)"/>
<path d="M0 0 C0.99 0.03 1.99 0.05 3.01 0.08 C4.15 0.13 4.15 0.13 5.31 0.19 C4.98 0.85 4.65 1.51 4.31 2.19 C2.32 2.79 2.32 2.79 -0.12 3.25 C-3.51 3.9 -3.51 3.9 -6.69 5.19 C-7.35 4.53 -8.01 3.87 -8.69 3.19 C-6.1 -0.17 -4.11 -0.15 0 0 Z " fill="#EBF2FD" transform="translate(171.6875,281.8125)"/>
<path d="M0 0 C0.99 0.5 0.99 0.5 2 1 C2 2.98 2 4.96 2 7 C2.66 7 3.32 7 4 7 C4 8.32 4 9.64 4 11 C4.66 11.33 5.32 11.66 6 12 C4.68 13.65 3.36 15.3 2 17 C-0.3 5.48 -0.3 5.48 0 0 Z " fill="#E1E5F8" transform="translate(359,228)"/>
<path d="M0 0 C0 3 0 3 -1 5 C-1.66 5 -2.32 5 -3 5 C-3.06 5.78 -3.12 6.57 -3.19 7.38 C-4 10 -4 10 -6.38 11.31 C-9 12 -9 12 -12 12 C-8.04 8.04 -4.08 4.08 0 0 Z " fill="#283360" transform="translate(265,222)"/>
<path d="M0 0 C0.99 0.33 1.98 0.66 3 1 C2.34 1.66 1.68 2.32 1 3 C0.57 4.52 0.57 4.52 0.12 6.06 C-0.25 7.03 -0.62 8 -1 9 C-3.12 9.88 -3.12 9.88 -5 10 C-4.57 5.25 -3.67 3.08 0 0 Z " fill="#243164" transform="translate(332,172)"/>
<path d="M0 0 C0.99 0.66 1.98 1.32 3 2 C1.56 2.51 0.13 3 -1.31 3.5 C-2.51 3.92 -2.51 3.92 -3.74 4.34 C-6 5 -6 5 -9 5 C-9 6.65 -9 8.3 -9 10 C-9.66 10 -10.32 10 -11 10 C-11.66 8.35 -12.32 6.7 -13 5 C-11.4 4.35 -9.79 3.71 -8.19 3.06 C-6.85 2.52 -6.85 2.52 -5.48 1.97 C-3.67 1.26 -1.84 0.61 0 0 Z " fill="#2C3969" transform="translate(318,254)"/>
<path d="M0 0 C0.66 0 1.32 0 2 0 C2 0.66 2 1.32 2 2 C2.66 2 3.32 2 4 2 C4.1 2.64 4.21 3.28 4.31 3.94 C4.54 4.62 4.77 5.3 5 6 C5.99 6.33 6.98 6.66 8 7 C8 7.66 8 8.32 8 9 C8.99 9.33 9.98 9.66 11 10 C10.67 10.99 10.34 11.98 10 13 C8.87 12.04 7.75 11.08 6.62 10.12 C6 9.59 5.37 9.06 4.73 8.51 C1.53 5.71 0.66 4.2 0 0 Z " fill="#263164" transform="translate(204,249)"/>
<path d="M0 0 C0.66 0 1.32 0 2 0 C2 1.32 2 2.64 2 4 C2.99 4 3.98 4 5 4 C5 4.99 5 5.98 5 7 C7.97 7.5 7.97 7.5 11 8 C11 8.66 11 9.32 11 10 C8.69 10 6.38 10 4 10 C3.57 9.1 3.57 9.1 3.12 8.19 C1.95 5.81 1.95 5.81 0 3 C0 2.01 0 1.02 0 0 Z " fill="#2E3B74" transform="translate(170,245)"/>
<path d="M0 0 C1.65 0.33 3.3 0.66 5 1 C4 4.79 3.19 7.72 1 11 C0.34 10.67 -0.32 10.34 -1 10 C-0.67 9.01 -0.34 8.02 0 7 C0.66 7 1.32 7 2 7 C1.34 6.01 0.68 5.02 0 4 C0 2.68 0 1.36 0 0 Z " fill="#202E6A" transform="translate(257,257)"/>
<path d="M0 0 C0 1.98 0 3.96 0 6 C-3.46 7.49 -3.46 7.49 -7 9 C-6.7 5.37 -6.24 4.22 -3.5 1.69 C-1 0 -1 0 0 0 Z " fill="#2C325A" transform="translate(276,274)"/>
<path d="M0 0 C2.38 1.5 2.38 1.5 4 3 C3 4 3 4 -0.31 4.25 C-4.1 3.99 -5.33 3.56 -8 1 C-5.19 -0.4 -3.11 -0.25 0 0 Z " fill="#EEF0FD" transform="translate(196,268)"/>
<path d="M0 0 C0.99 0.33 1.98 0.66 3 1 C3 1.66 3 2.32 3 3 C-2.44 5.48 -2.44 5.48 -8 8 C-7 4 -7 4 -5 2 C-2.38 1.88 -2.38 1.88 0 2 C0 1.34 0 0.68 0 0 Z " fill="#E1E5F6" transform="translate(294,260)"/>
<path d="M0 0 C0.66 1.32 1.32 2.64 2 4 C2.99 3.67 3.98 3.34 5 3 C4.67 3.99 4.34 4.98 4 6 C0.56 5.19 0.56 5.19 -3 4 C-3.33 3.01 -3.66 2.02 -4 1 C-2.68 0.67 -1.36 0.34 0 0 Z M0.56 5.94 C1.77 5.97 1.77 5.97 3 6 C1.12 7.06 1.12 7.06 -1 8 C-1.66 7.67 -2.32 7.34 -3 7 C-2 6 -2 6 0.56 5.94 Z " fill="#2C397A" transform="translate(325,252)"/>
<path d="M0 0 C0.66 0 1.32 0 2 0 C2 4.95 2 9.9 2 15 C-0.56 12.44 -0.4 11.06 -0.69 7.5 C-0.77 6.52 -0.86 5.54 -0.95 4.53 C-1 2 -1 2 0 0 Z " fill="#C0F9F9" transform="translate(299,101)"/>
<path d="M0 0 C1.91 3.27 2.36 5.99 2.62 9.75 C2.7 10.73 2.77 11.72 2.85 12.73 C2.93 13.86 2.93 13.86 3 15 C2.01 14.67 1.02 14.34 0 14 C-0.19 12.04 -0.38 10.08 -0.56 8.12 C-0.67 7.03 -0.77 5.94 -0.88 4.82 C-1 2 -1 2 0 0 Z " fill="#ECF3FE" transform="translate(346,233)"/>
<path d="M0 0 C2.81 -0.03 5.62 -0.05 8.44 -0.06 C9.24 -0.07 10.04 -0.08 10.87 -0.09 C12.91 -0.1 14.96 -0.05 17 0 C18 1 18 1 18.1 3.5 C18.09 4.51 18.07 5.52 18.06 6.56 C18.05 7.57 18.04 8.59 18.04 9.63 C18.02 10.41 18.01 11.19 18 12 C17.67 12 17.34 12 17 12 C16.94 11.36 16.88 10.72 16.82 10.07 C16.69 8.83 16.69 8.83 16.56 7.56 C16.48 6.74 16.4 5.92 16.32 5.07 C16.21 3.01 16.21 3.01 15 2 C12.47 1.76 9.97 1.58 7.44 1.44 C6.73 1.39 6.02 1.35 5.28 1.31 C3.52 1.2 1.76 1.1 0 1 C0 0.67 0 0.34 0 0 Z " fill="#329A96" transform="translate(346,100)"/>
<path d="M0 0 C0.33 0 0.66 0 1 0 C0.98 1.09 0.96 2.19 0.94 3.31 C0.81 6.94 0.81 6.94 2 10 C1.72 12.01 1.4 14.01 1 16 C0.01 16 -0.98 16 -2 16 C-1.86 13.9 -1.71 11.79 -1.56 9.69 C-1.48 8.52 -1.4 7.34 -1.32 6.14 C-1 3 -1 3 0 0 Z " fill="#2B366C" transform="translate(156,250)"/>
<path d="M0 0 C-1.39 4.43 -3.61 6.87 -7 10 C-7.33 8.68 -7.66 7.36 -8 6 C-7.34 5.67 -6.68 5.34 -6 5 C-5.78 4.01 -5.78 4.01 -5.56 3 C-5.38 2.34 -5.19 1.68 -5 1 C-2 0 -2 0 0 0 Z " fill="#293465" transform="translate(287,226)"/>
<path d="M0 0 C2.31 0.33 4.62 0.66 7 1 C6.67 1.99 6.34 2.98 6 4 C5.01 4.33 4.02 4.66 3 5 C2.67 6.98 2.34 8.96 2 11 C1.67 11 1.34 11 1 11 C0.67 7.37 0.34 3.74 0 0 Z " fill="#343B61" transform="translate(343,194)"/>
<path d="M0 0 C0.99 0 1.98 0 3 0 C2.67 0.99 2.34 1.98 2 3 C1.34 3 0.68 3 0 3 C-0.99 4.49 -0.99 4.49 -2 6 C-5.12 7.19 -5.12 7.19 -8 8 C-8 6.68 -8 5.36 -8 4 C-6.58 3.57 -6.58 3.57 -5.12 3.12 C-1.95 2.23 -1.95 2.23 0 0 Z " fill="#E7E8EF" transform="translate(348,161)"/>
<path d="M0 0 C0.56 0.39 1.11 0.78 1.69 1.19 C-1.17 3.09 -3.24 3.88 -6.5 4.81 C-7.4 5.07 -8.3 5.33 -9.23 5.6 C-9.92 5.79 -10.6 5.99 -11.31 6.19 C-4.18 -1.47 -4.18 -1.47 0 0 Z " fill="#41475B" transform="translate(274.3125,286.8125)"/>
<path d="M0 0 C0.66 0.33 1.32 0.66 2 1 C1.39 4.56 0.42 7.68 -1 11 C-1.99 11 -2.98 11 -4 11 C-4.75 9.25 -4.75 9.25 -5 7 C-3.12 4.94 -3.12 4.94 -1 3 C-0.67 2.01 -0.34 1.02 0 0 Z " fill="#E5E7EF" transform="translate(141,276)"/>
<path d="M0 0 C1 3 1 3 0.31 5 C-1.17 7.27 -2.76 8.51 -5 10 C-5.33 9.01 -5.66 8.02 -6 7 C-4.79 5.18 -4.79 5.18 -3.06 3.31 C-2.5 2.69 -1.93 2.07 -1.35 1.43 C-0.9 0.96 -0.46 0.48 0 0 Z " fill="#313B6F" transform="translate(252,235)"/>
<path d="M0 0 C4.97 0.5 8.64 1.55 13 4 C13 4.99 13 5.98 13 7 C8.5 5.31 4.27 3.18 0 1 C0 0.67 0 0.34 0 0 Z " fill="#5CA4C5" transform="translate(200,223)"/>
<path d="M0 0 C6.6 0.33 13.2 0.66 20 1 C20 1.33 20 1.66 20 2 C18.21 2.09 18.21 2.09 16.39 2.18 C14.82 2.27 13.25 2.35 11.69 2.44 C10.9 2.48 10.12 2.52 9.31 2.56 C8.55 2.6 7.79 2.64 7.01 2.68 C6.32 2.72 5.62 2.76 4.9 2.79 C2.78 2.96 2.78 2.96 0 4 C-0.66 3.34 -1.32 2.68 -2 2 C-1.34 2 -0.68 2 0 2 C0 1.34 0 0.68 0 0 Z " fill="#CEFAF9" transform="translate(301,97)"/>
<path d="M0 0 C1.98 0.66 3.96 1.32 6 2 C6 2.99 6 3.98 6 5 C4.68 4.67 3.36 4.34 2 4 C2 4.66 2 5.32 2 6 C0.02 6.33 -1.96 6.66 -4 7 C-4.33 6.34 -4.66 5.68 -5 5 C-3.35 4.67 -1.7 4.34 0 4 C0 2.68 0 1.36 0 0 Z " fill="#323C71" transform="translate(210,277)"/>
<path d="M0 0 C-1.2 2.49 -2.45 4.68 -4 7 C-6.62 7.19 -6.62 7.19 -9 7 C-8.07 5.82 -7.13 4.66 -6.19 3.5 C-5.67 2.85 -5.14 2.2 -4.61 1.53 C-3 0 -3 0 0 0 Z " fill="#263365" transform="translate(284,207)"/>
<path d="M0 0 C0.99 0.33 1.98 0.66 3 1 C2.69 2.2 2.38 3.39 2.06 4.62 C1.2 8.06 0.53 11.49 0 15 C-0.33 15 -0.66 15 -1 15 C-2.02 9.21 -1.96 5.54 0 0 Z " fill="#E2E6F9" transform="translate(154,197)"/>
<path d="M0 0 C1.55 1.64 1.55 1.64 3 4 C2.86 6.8 2.86 6.8 2.19 9.75 C1.97 10.73 1.76 11.72 1.54 12.73 C1.36 13.48 1.18 14.23 1 15 C0.34 14.34 -0.32 13.68 -1 13 C-0.98 9.96 -0.98 9.96 -0.62 6.38 C-0.51 5.19 -0.4 4 -0.29 2.77 C-0.19 1.86 -0.1 0.94 0 0 Z " fill="#333D6A" transform="translate(168,212)"/>
<path d="M0 0 C1.42 -0.05 2.83 -0.09 4.25 -0.12 C5.04 -0.15 5.83 -0.17 6.64 -0.2 C9.21 0.02 10.79 0.71 13 2 C11.4 2.2 9.79 2.38 8.19 2.56 C7.29 2.67 6.4 2.77 5.48 2.88 C3 3 3 3 0 2 C0 1.34 0 0.68 0 0 Z " fill="#E5EDFC" transform="translate(191,282)"/>
<path d="M0 0 C2.64 1.98 5.28 3.96 8 6 C7.67 6.66 7.34 7.32 7 8 C2.54 6.02 2.54 6.02 -2 4 C-1.34 2.68 -0.68 1.36 0 0 Z " fill="#3B3F5F" transform="translate(216,270)"/>
<path d="M0 0 C0.66 0.33 1.32 0.66 2 1 C1.91 2.46 1.8 3.92 1.69 5.38 C1.63 6.19 1.57 7 1.51 7.84 C1 10 1 10 -2 12 C-3.64 7.07 -2.19 4.46 0 0 Z " fill="#2D396E" transform="translate(159,235)"/>
<path d="M0 0 C2.47 0.99 2.47 0.99 5 2 C4.01 3.98 3.02 5.96 2 8 C1.01 8 0.02 8 -1 8 C-0.34 7.34 0.32 6.68 1 6 C0.01 4.68 -0.98 3.36 -2 2 C-1.34 1.34 -0.68 0.68 0 0 Z " fill="#2A397E" transform="translate(188,231)"/>
<path d="M0 0 C0.66 0 1.32 0 2 0 C1.34 5.28 0.68 10.56 0 16 C-2.19 11.62 -2.12 11.37 -1 7 C-0.66 4.67 -0.32 2.34 0 0 Z " fill="#DBE2F8" transform="translate(149,228)"/>
<path d="M0 0 C2.5 2.17 3.44 3.73 4 7 C4.99 7 5.98 7 7 7 C7 7.66 7 8.32 7 9 C5 9.04 3 9.04 1 9 C0 8 0 8 -0.1 6.15 C-0.07 4.1 -0.03 2.05 0 0 Z " fill="#EFF5FC" transform="translate(189,219)"/>
<path d="M0 0 C0.66 0 1.32 0 2 0 C1.92 1.09 1.84 2.19 1.75 3.31 C1.59 7.03 1.59 7.03 4 8.94 C4.66 9.29 5.32 9.64 6 10 C4.02 10 2.04 10 0 10 C-0.95 6.3 -0.95 3.7 0 0 Z " fill="#2B3355" transform="translate(143,275)"/>
<path d="M0 0 C2.97 0.5 2.97 0.5 6 1 C3.19 3.96 0.82 6.44 -3 8 C-3.33 7.01 -3.66 6.02 -4 5 C-2.68 4.34 -1.36 3.68 0 3 C0 2.01 0 1.02 0 0 Z " fill="#E7EBFA" transform="translate(266,275)"/>
<path d="M0 0 C-4 4 -4 4 -6.62 4.12 C-7.41 4.08 -8.19 4.04 -9 4 C-8.67 3.34 -8.34 2.68 -8 2 C-8.66 1.34 -9.32 0.68 -10 0 C-6.34 -0.75 -3.58 -1.24 0 0 Z " fill="#DEE2F5" transform="translate(330,264)"/>
<path d="M0 0 C0.33 0.66 0.66 1.32 1 2 C1.66 2 2.32 2 3 2 C2.34 3.32 1.68 4.64 1 6 C-1.97 5.5 -1.97 5.5 -5 5 C-3.35 3.35 -1.7 1.7 0 0 Z " fill="#212D6A" transform="translate(242,248)"/>
<path d="M0 0 C-0.66 1.65 -1.32 3.3 -2 5 C-4.31 5.33 -6.62 5.66 -9 6 C-8.01 5.67 -7.02 5.34 -6 5 C-5.83 4.34 -5.67 3.68 -5.5 3 C-5.33 2.34 -5.17 1.68 -5 1 C-2 0 -2 0 0 0 Z " fill="#EEF5FB" transform="translate(291,196)"/>
<path d="M0 0 C-1.5 1.62 -1.5 1.62 -4 3 C-6.83 2.66 -9.26 1.87 -12 1 C-12 0.67 -12 0.34 -12 0 C-3.43 -1.29 -3.43 -1.29 0 0 Z " fill="#DBE4F5" transform="translate(313,282)"/>
<path d="M0 0 C0.66 0 1.32 0 2 0 C2.22 5.44 2.1 9.87 0 15 C-0.33 15 -0.66 15 -1 15 C-1.03 12.69 -1.05 10.38 -1.06 8.06 C-1.07 6.77 -1.09 5.49 -1.1 4.16 C-1 1 -1 1 0 0 Z " fill="#243067" transform="translate(156,201)"/>
<path d="M0 0 C0.66 0.33 1.32 0.66 2 1 C1.34 2.98 0.68 4.96 0 7 C-2.97 6.5 -2.97 6.5 -6 6 C-4 4 -2 2 0 0 Z " fill="#E3E6F3" transform="translate(345,168)"/>
<path d="M0 0 C1.02 3.63 1.66 7.24 2 11 C1.34 11.99 0.68 12.98 0 14 C-1 13 -1 13 -1.13 10.57 C-1.13 9.58 -1.13 8.58 -1.12 7.56 C-1.13 6.57 -1.13 5.59 -1.13 4.57 C-1 2 -1 2 0 0 Z " fill="#20A6A2" transform="translate(303,102)"/>
<path d="M0 0 C0.33 0 0.66 0 1 0 C1 2.97 1 5.94 1 9 C-0.98 9.33 -2.96 9.66 -5 10 C-5 9.01 -5 8.02 -5 7 C-3.35 7 -1.7 7 0 7 C0 4.69 0 2.38 0 0 Z " fill="#2C3866" transform="translate(335,244)"/>
<path d="M0 0 C1.98 0.66 3.96 1.32 6 2 C5.67 3.32 5.34 4.64 5 6 C4.38 5.81 3.76 5.63 3.12 5.44 C0.96 4.76 0.96 4.76 -1 6 C-0.67 4.02 -0.34 2.04 0 0 Z " fill="#DCE2F6" transform="translate(347,258)"/>
<path d="M0 0 C0.66 0.33 1.32 0.66 2 1 C2 1.99 2 2.98 2 4 C1.34 4 0.68 4 0 4 C-0.66 5.32 -1.32 6.64 -2 8 C-2.66 7.67 -3.32 7.34 -4 7 C-2.8 4.51 -1.55 2.32 0 0 Z " fill="#E3E8F8" transform="translate(279,237)"/>
<path d="M0 0 C0.99 0.33 1.98 0.66 3 1 C1.02 2.98 -0.96 4.96 -3 7 C-4.32 6.34 -5.64 5.68 -7 5 C-7 4.67 -7 4.34 -7 4 C-5.82 3.85 -5.82 3.85 -4.62 3.69 C-1.67 3.22 -1.67 3.22 0 0 Z " fill="#5095A6" transform="translate(237,236)"/>
<path d="M0 0 C0.33 0 0.66 0 1 0 C1.33 3.96 1.66 7.92 2 12 C-1 10 -1 10 -1.58 8.12 C-1.66 7.42 -1.73 6.72 -1.81 6 C-1.9 5.3 -1.99 4.6 -2.08 3.88 C-2 2 -2 2 0 0 Z " fill="#374073" transform="translate(341,216)"/>
<path d="M0 0 C0.66 0.33 1.32 0.66 2 1 C1.51 7.4 1.51 7.4 -1.06 10.44 C-2.02 11.21 -2.02 11.21 -3 12 C-3 9 -3 9 -1 7 C-0.6 4.68 -0.26 2.34 0 0 Z " fill="#D2F6FB" transform="translate(257,213)"/>
<path d="M0 0 C0.66 0.33 1.32 0.66 2 1 C1.67 1.6 1.34 2.2 1 2.81 C-0.21 5.05 -0.21 5.05 0 8 C-0.99 8 -1.98 8 -3 8 C-3.66 7.34 -4.32 6.68 -5 6 C-3.35 4.02 -1.7 2.04 0 0 Z " fill="#DFE4F2" transform="translate(303,208)"/>
<path d="M0 0 C0.66 0.33 1.32 0.66 2 1 C2 2.32 2 3.64 2 5 C2.31 6.05 2.31 6.05 2.62 7.12 C2.75 7.74 2.87 8.36 3 9 C2.34 9.66 1.68 10.32 1 11 C1 10.01 1 9.02 1 8 C0.34 8 -0.32 8 -1 8 C-1 6.35 -1 4.7 -1 3 C-1.66 2.67 -2.32 2.34 -3 2 C-2.01 1.34 -1.02 0.68 0 0 Z " fill="#F6F7FC" transform="translate(340,185)"/>
<path d="M0 0 C1.86 -0.06 1.86 -0.06 3.75 -0.12 C4.79 -0.16 4.79 -0.16 5.86 -0.2 C8 0 8 0 12 2 C8.7 2.33 5.4 2.66 2 3 C1.34 2.01 0.68 1.02 0 0 Z " fill="#E3EAFE" transform="translate(336,281)"/>
<path d="M0 0 C0.66 0.66 1.32 1.32 2 2 C2.99 2 3.98 2 5 2 C4.01 3.65 3.02 5.3 2 7 C1.01 6.67 0.02 6.34 -1 6 C-0.67 4.02 -0.34 2.04 0 0 Z " fill="#323D73" transform="translate(249,273)"/>
<path d="M0 0 C2 1.38 2 1.38 4 3 C4 3.66 4 4.32 4 5 C4.99 5.33 5.98 5.66 7 6 C6.01 6.66 5.02 7.32 4 8 C-0.88 3.25 -0.88 3.25 -2 1 C-1.34 0.67 -0.68 0.34 0 0 Z " fill="#394677" transform="translate(224,269)"/>
<path d="M0 0 C0.1 0.6 0.21 1.2 0.31 1.81 C1.09 4.28 2.07 5.32 4 7 C2.68 7.33 1.36 7.66 0 8 C-0.33 6.68 -0.66 5.36 -1 4 C-1.66 4 -2.32 4 -3 4 C-3 3.34 -3 2.68 -3 2 C-2.01 1.34 -1.02 0.68 0 0 Z " fill="#374070" transform="translate(288,266)"/>
<path d="M0 0 C3.69 0.5 5.6 1.1 8 4 C6.25 4.69 6.25 4.69 4 5 C1.75 3.69 1.75 3.69 0 2 C0 1.34 0 0.68 0 0 Z " fill="#333E6F" transform="translate(212,240)"/>
<path d="M0 0 C0.99 0.33 1.98 0.66 3 1 C0.69 3.31 -1.62 5.62 -4 8 C-4.33 6.68 -4.66 5.36 -5 4 C-4.01 4 -3.02 4 -2 4 C-1.34 2.68 -0.68 1.36 0 0 Z " fill="#4A9EB0" transform="translate(245,228)"/>
<path d="M0 0 C0.66 0.33 1.32 0.66 2 1 C0.35 2.65 -1.3 4.3 -3 6 C-3.99 5.67 -4.98 5.34 -6 5 C-6 4.34 -6 3.68 -6 3 C-4.04 1.93 -2.03 0.93 0 0 Z " fill="#DEE5F7" transform="translate(278,208)"/>
<path d="M0 0 C2.69 0.31 2.69 0.31 5 1 C5.33 1.99 5.66 2.98 6 4 C2.89 4 0.06 3.54 -3 3 C-1.81 1.44 -1.81 1.44 0 0 Z " fill="#E1E4F4" transform="translate(334,187)"/>
<path d="M0 0 C0.99 0.33 1.98 0.66 3 1 C3 2.65 3 4.3 3 6 C1.02 6.99 1.02 6.99 -1 8 C-0.67 5.36 -0.34 2.72 0 0 Z " fill="#36406E" transform="translate(144,267)"/>
<path d="M0 0 C0.33 0 0.66 0 1 0 C1 2.31 1 4.62 1 7 C0.34 7 -0.32 7 -1 7 C-1.33 7.66 -1.66 8.32 -2 9 C-2.12 5.62 -2.12 5.62 -2 2 C-1.34 1.34 -0.68 0.68 0 0 Z " fill="#EBF1FE" transform="translate(167,204)"/>
<path d="M0 0 C0 0.99 0 1.98 0 3 C-3.33 6 -3.33 6 -6 6 C-5.69 4.12 -5.69 4.12 -5 2 C-2 0 -2 0 0 0 Z " fill="#1AA1B2" transform="translate(280,194)"/>
<path d="M0 0 C5.75 1.62 5.75 1.62 8 5 C7.01 5.33 6.02 5.66 5 6 C3.35 4.02 1.7 2.04 0 0 Z " fill="#35406D" transform="translate(229,277)"/>
<path d="M0 0 C0.66 0.33 1.32 0.66 2 1 C2 2.65 2 4.3 2 6 C0.68 6 -0.64 6 -2 6 C-1.34 4.02 -0.68 2.04 0 0 Z " fill="#E4F6F8" transform="translate(253,224)"/>
<path d="M0 0 C0.33 0.66 0.66 1.32 1 2 C-0.27 4.04 -1.61 6.04 -3 8 C-3.66 8 -4.32 8 -5 8 C-5 8.66 -5 9.32 -5 10 C-5.66 9.67 -6.32 9.34 -7 9 C-4.69 6.03 -2.38 3.06 0 0 Z " fill="#E0E4F8" transform="translate(295,217)"/>
<path d="M0 0 C0.99 0.33 1.98 0.66 3 1 C3 4.63 3 8.26 3 12 C2.67 12 2.34 12 2 12 C1.34 8.04 0.68 4.08 0 0 Z " fill="#263160" transform="translate(351,198)"/>
<path d="M0 0 C0 0.99 0 1.98 0 3 C-0.99 3.5 -0.99 3.5 -2 4 C-2 4.66 -2 5.32 -2 6 C-3.32 6.33 -4.64 6.66 -6 7 C-4.52 2.32 -4.52 2.32 -1.88 0.69 C-1.26 0.46 -0.64 0.23 0 0 Z " fill="#353C67" transform="translate(161,195)"/>
<path d="M0 0 C2.01 0.29 4.01 0.62 6 1 C4.35 2.65 2.7 4.3 1 6 C0.67 5.34 0.34 4.68 0 4 C0.33 3.34 0.66 2.68 1 2 C0.34 1.67 -0.32 1.34 -1 1 C-0.67 0.67 -0.34 0.34 0 0 Z " fill="#DCE8F4" transform="translate(290,194)"/>
<path d="M0 0 C2.87 0.57 3.86 0.86 6 3 C4 5 4 5 0.88 5.12 C-0.55 5.06 -0.55 5.06 -2 5 C-1.01 4.01 -0.02 3.02 1 2 C0.67 1.34 0.34 0.68 0 0 Z " fill="#E6EBF1" transform="translate(273,289)"/>
<path d="M0 0 C2.31 0 4.62 0 7 0 C6.34 1.32 5.68 2.64 5 4 C1.12 2.25 1.12 2.25 0 0 Z " fill="#273255" transform="translate(239,287)"/>
<path d="M0 0 C0.66 0.99 1.32 1.98 2 3 C4.06 3.72 4.06 3.72 6 4 C3.09 5.26 1.2 6 -2 6 C-1.34 4.02 -0.68 2.04 0 0 Z " fill="#DCE3F5" transform="translate(297,270)"/>
<path d="M0 0 C1.32 0.66 2.64 1.32 4 2 C2 4 2 4 -1 5 C-1.99 4.34 -2.98 3.68 -4 3 C-3.01 3 -2.02 3 -1 3 C-0.67 2.01 -0.34 1.02 0 0 Z " fill="#202C65" transform="translate(202,262)"/>
<path d="M0 0 C4.75 0.75 4.75 0.75 7 3 C2.25 4.12 2.25 4.12 0 3 C0 2.01 0 1.02 0 0 Z " fill="#343F6C" transform="translate(196,259)"/>
<path d="M0 0 C0.66 0.33 1.32 0.66 2 1 C2.62 3.56 2.62 3.56 3 6 C1.68 5.67 0.36 5.34 -1 5 C-1 4.34 -1 3.68 -1 3 C-1.66 2.67 -2.32 2.34 -3 2 C-2.01 2 -1.02 2 0 2 C0 1.34 0 0.68 0 0 Z " fill="#283974" transform="translate(228,249)"/>
<path d="M0 0 C0.66 0 1.32 0 2 0 C2.33 0.99 2.66 1.98 3 3 C2.01 4.49 2.01 4.49 1 6 C0.34 6 -0.32 6 -1 6 C-1.62 4.12 -1.62 4.12 -2 2 C-1.34 1.34 -0.68 0.68 0 0 Z " fill="#253162" transform="translate(245,243)"/>
<path d="M0 0 C1.32 0 2.64 0 4 0 C4 1.98 4 3.96 4 6 C2.68 5.67 1.36 5.34 0 5 C0 3.35 0 1.7 0 0 Z " fill="#E3E6F3" transform="translate(211,234)"/>
<path d="M0 0 C0 3.2 -0.74 5.09 -2 8 C-2.99 7.01 -3.98 6.02 -5 5 C-3.35 3.35 -1.7 1.7 0 0 Z " fill="#353D6E" transform="translate(272,215)"/>
<path d="M0 0 C2.25 0.25 2.25 0.25 4 1 C2.79 1.37 2.79 1.37 1.56 1.75 C-1.17 2.72 -1.17 2.72 -1.81 5.12 C-1.91 6.05 -1.91 6.05 -2 7 C-2.66 6.01 -3.32 5.02 -4 4 C-2.25 1.94 -2.25 1.94 0 0 Z " fill="#222F6B" transform="translate(294,213)"/>
<path d="M0 0 C0.33 1.32 0.66 2.64 1 4 C-0.32 4.99 -1.64 5.98 -3 7 C-2.67 5.35 -2.34 3.7 -2 2 C-2.66 1.67 -3.32 1.34 -4 1 C-2 0 -2 0 0 0 Z " fill="#344272" transform="translate(335,173)"/>
<path d="M0 0 C3 2 3 2 3.69 4.62 C3.79 5.41 3.89 6.19 4 7 C1.53 6.01 1.53 6.01 -1 5 C-0.67 3.35 -0.34 1.7 0 0 Z " fill="#37426D" transform="translate(220,281)"/>
<path d="M0 0 C0.66 0.33 1.32 0.66 2 1 C2 1.66 2 2.32 2 3 C2.66 3 3.32 3 4 3 C4 3.66 4 4.32 4 5 C2.02 5 0.04 5 -2 5 C-1.34 3.35 -0.68 1.7 0 0 Z " fill="#EDEFF0" transform="translate(160,263)"/>
<path d="M0 0 C0.66 0.33 1.32 0.66 2 1 C2 1.66 2 2.32 2 3 C3.65 2.34 5.3 1.68 7 1 C6.01 2.32 5.02 3.64 4 5 C1.53 4.01 1.53 4.01 -1 3 C-0.67 2.01 -0.34 1.02 0 0 Z " fill="#E1E6F9" transform="translate(232,249)"/>
<path d="M0 0 C0.66 0.99 1.32 1.98 2 3 C0.35 4.32 -1.3 5.64 -3 7 C-2.25 2.25 -2.25 2.25 0 0 Z " fill="#28315F" transform="translate(307,200)"/>
<path d="M0 0 C2.12 0.38 2.12 0.38 4 1 C4 1.99 4 2.98 4 4 C2.68 4.33 1.36 4.66 0 5 C0 4.34 0 3.68 0 3 C-0.66 2.67 -1.32 2.34 -2 2 C-1.34 1.34 -0.68 0.68 0 0 Z " fill="#232C61" transform="translate(297,194)"/>
<path d="M0 0 C0.66 0.33 1.32 0.66 2 1 C2 1.66 2 2.32 2 3 C1.1 3.15 1.1 3.15 0.19 3.31 C-2.28 4.09 -3.32 5.07 -5 7 C-5 5.68 -5 4.36 -5 3 C-2.62 1.19 -2.62 1.19 0 0 Z " fill="#36406B" transform="translate(322,177)"/>
</svg>
